<svg width="24" height="24" viewBox="0 0 24 24" fill="none" xmlns="http://www.w3.org/2000/svg">
<path d="M14.0469 8.79062C15.1285 8.79062 16.1657 9.22028 16.9305 9.98508C17.6953 10.7499 18.125 11.7872 18.125 12.8688V17.2188C18.125 17.5793 17.9818 17.925 17.7268 18.18C17.4719 18.4349 17.1262 18.5781 16.7656 18.5781C16.4051 18.5781 16.0593 18.4349 15.8044 18.18C15.5495 17.925 15.4062 17.5793 15.4062 17.2188V12.8688C15.4062 12.5082 15.263 12.1625 15.0081 11.9075C14.7532 11.6526 14.4074 11.5094 14.0469 11.5094C13.6863 11.5094 13.3406 11.6526 13.0857 11.9075C12.8307 12.1625 12.6875 12.5082 12.6875 12.8688V17.2188C12.6875 17.5793 12.5443 17.925 12.2893 18.18C12.0344 18.4349 11.6887 18.5781 11.3281 18.5781C10.9676 18.5781 10.6218 18.4349 10.3669 18.18C10.112 17.925 9.96875 17.5793 9.96875 17.2188V10.4219C9.96855 10.1756 10.0353 9.93381 10.1618 9.72247C10.2883 9.51113 10.4699 9.33815 10.6871 9.222C10.9044 9.10585 11.1491 9.05091 11.3951 9.06304C11.6411 9.07517 11.8792 9.15392 12.0839 9.29087C12.6657 8.97187 13.3346 8.79062 14.0469 8.79062ZM6.80413 9.0625C7.16465 9.0625 7.51042 9.20572 7.76535 9.46065C8.02028 9.71558 8.1635 10.0613 8.1635 10.4219V17.2188C8.1635 17.5793 8.02028 17.925 7.76535 18.18C7.51042 18.4349 7.16465 18.5781 6.80413 18.5781C6.4436 18.5781 6.09783 18.4349 5.8429 18.18C5.58797 17.925 5.44475 17.5793 5.44475 17.2188V10.4219C5.44475 10.0613 5.58797 9.71558 5.8429 9.46065C6.09783 9.20572 6.4436 9.0625 6.80413 9.0625ZM6.79688 4.53125C7.27782 4.53125 7.73907 4.7223 8.07915 5.06238C8.41923 5.40246 8.61028 5.86371 8.61028 6.34466C8.61028 6.8256 8.41923 7.28685 8.07915 7.62693C7.73907 7.96701 7.27782 8.15806 6.79688 8.15806C6.31617 8.15806 5.85515 7.9671 5.51524 7.62719C5.17533 7.28728 4.98438 6.82627 4.98438 6.34556C4.98438 5.86486 5.17533 5.40384 5.51524 5.06393C5.85515 4.72402 6.31617 4.53125 6.79688 4.53125Z" fill="#12294B"/>
<path fill-rule="evenodd" clip-rule="evenodd" d="M18.125 0C19.5671 0 20.9502 0.572878 21.9699 1.59261C22.9896 2.61234 23.5625 3.99539 23.5625 5.4375V18.125C23.5629 19.5191 23.0279 20.8601 22.0679 21.871C21.108 22.8819 19.7964 23.4855 18.4041 23.5571L18.125 23.5643H5.4375L5.15838 23.5571C3.81459 23.488 2.54414 22.9231 1.59268 21.9716C0.641227 21.0202 0.0763413 19.7497 0.00724991 18.4059L0 18.125V5.4375C0 3.99539 0.572878 2.61234 1.59261 1.59261C2.61234 0.572878 3.99539 0 5.4375 0H18.125ZM5.4375 2.71875C4.71644 2.71875 4.02492 3.00519 3.51505 3.51505C3.00519 4.02492 2.71875 4.71644 2.71875 5.4375V18.125C2.71875 18.8461 3.00519 19.5376 3.51505 20.0474C4.02492 20.5573 4.71644 20.8438 5.4375 20.8438H18.125C18.8461 20.8438 19.5376 20.5573 20.0474 20.0474C20.5573 19.5376 20.8438 18.8461 20.8438 18.125V5.4375C20.8438 4.71644 20.5573 4.02492 20.0474 3.51505C19.5376 3.00519 18.8461 2.71875 18.125 2.71875H5.4375Z" fill="#12294B"/>
</svg>
