<svg width="27" height="26" viewBox="0 0 27 26" fill="none" xmlns="http://www.w3.org/2000/svg">
<path fill-rule="evenodd" clip-rule="evenodd" d="M5.27344 11.375C5.27344 9.27399 6.14016 7.25903 7.68294 5.77339C9.22572 4.28775 11.3182 3.45312 13.5 3.45312C15.6818 3.45312 17.7743 4.28775 19.3171 5.77339C20.8598 7.25903 21.7266 9.27399 21.7266 11.375C21.7266 14.404 20.4204 16.1882 18.8797 17.5744C18.2301 18.1594 17.5888 18.6306 16.9054 19.1311L16.2894 19.5861C15.829 19.9235 15.389 20.2859 14.9715 20.6716C14.5614 21.0616 14.0687 21.606 13.7396 22.3129C13.705 22.3958 13.65 22.4694 13.5793 22.5274L13.554 22.5404C13.554 22.5404 13.5371 22.5469 13.5 22.5469L13.446 22.542L13.4207 22.5274C13.3502 22.4699 13.2952 22.3968 13.2604 22.3145C12.9583 21.699 12.5406 21.1426 12.0285 20.6733C11.611 20.2875 11.171 19.9251 10.7106 19.5877C10.5002 19.4307 10.2943 19.279 10.0929 19.1327C9.40855 18.645 8.75015 18.1244 8.12025 17.5728C6.58125 16.1899 5.27344 14.4056 5.27344 11.375ZM24.4688 11.375C24.4688 16.9 20.9824 19.4594 18.5119 21.2729C17.442 22.061 16.5611 22.7061 16.2422 23.3935C15.7866 24.375 14.8298 25.1875 13.5 25.1875C12.1702 25.1875 11.2151 24.375 10.7578 23.3935C10.4372 22.7061 9.55969 22.061 8.48644 21.2729C6.01762 19.4594 2.53125 16.8984 2.53125 11.375C2.53125 8.57365 3.68688 5.88704 5.74392 3.90618C7.80096 1.92533 10.5909 0.8125 13.5 0.8125C16.4091 0.8125 19.199 1.92533 21.2561 3.90618C23.3131 5.88704 24.4688 8.57365 24.4688 11.375ZM16.0312 11.375C16.0312 12.0215 15.7646 12.6415 15.2899 13.0986C14.8152 13.5557 14.1713 13.8125 13.5 13.8125C12.8287 13.8125 12.1848 13.5557 11.7101 13.0986C11.2354 12.6415 10.9688 12.0215 10.9688 11.375C10.9688 10.7285 11.2354 10.1085 11.7101 9.65143C12.1848 9.19431 12.8287 8.9375 13.5 8.9375C14.1713 8.9375 14.8152 9.19431 15.2899 9.65143C15.7646 10.1085 16.0312 10.7285 16.0312 11.375ZM18.5625 11.375C18.5625 12.6679 18.0291 13.9079 17.0797 14.8221C16.1303 15.7364 14.8427 16.25 13.5 16.25C12.1573 16.25 10.8697 15.7364 9.92027 14.8221C8.97087 13.9079 8.4375 12.6679 8.4375 11.375C8.4375 10.0821 8.97087 8.84209 9.92027 7.92785C10.8697 7.01361 12.1573 6.5 13.5 6.5C14.8427 6.5 16.1303 7.01361 17.0797 7.92785C18.0291 8.84209 18.5625 10.0821 18.5625 11.375Z" fill="#12294B"/>
</svg>
