<svg width="11" height="11" viewBox="0 0 11 11" fill="none" xmlns="http://www.w3.org/2000/svg">
<path d="M5.14119 9.42554C5.04123 9.42554 4.95554 9.39698 4.88414 9.33986C4.81273 9.28273 4.75918 9.20776 4.72347 9.11493C4.58781 8.71506 4.41643 8.34019 4.20936 7.9903C4.00942 7.64042 3.72737 7.22984 3.36321 6.75856C2.99904 6.28729 2.70271 5.83744 2.47422 5.40901C2.25286 4.98058 2.14218 4.46289 2.14218 3.85595C2.14218 3.02051 2.43137 2.3136 3.00975 1.73522C3.59527 1.14969 4.30576 0.856934 5.14119 0.856934C5.97663 0.856934 6.68354 1.14969 7.26193 1.73522C7.84745 2.3136 8.14021 3.02051 8.14021 3.85595C8.14021 4.50573 8.01525 5.04841 7.76533 5.48398C7.52255 5.91241 7.2405 6.33727 6.91918 6.75856C6.53359 7.27268 6.24083 7.70111 6.0409 8.04385C5.8481 8.37946 5.68744 8.73648 5.55891 9.11493C5.52321 9.2149 5.46609 9.29344 5.38754 9.35057C5.31614 9.40055 5.23402 9.42554 5.14119 9.42554ZM5.14119 7.8939C5.26258 7.65113 5.39825 7.41192 5.5482 7.17628C5.70529 6.94065 5.93379 6.62646 6.23369 6.23374C6.54073 5.83387 6.79065 5.46613 6.98344 5.13053C7.18338 4.78778 7.28335 4.36292 7.28335 3.85595C7.28335 3.26328 7.0727 2.75988 6.65141 2.34573C6.23726 1.92444 5.73386 1.71379 5.14119 1.71379C4.54853 1.71379 4.04156 1.92444 3.62027 2.34573C3.20612 2.75988 2.99904 3.26328 2.99904 3.85595C2.99904 4.36292 3.09544 4.78778 3.28823 5.13053C3.48817 5.46613 3.74166 5.83387 4.0487 6.23374C4.3486 6.62646 4.57352 6.94065 4.72347 7.17628C4.88057 7.41192 5.01981 7.65113 5.14119 7.8939ZM5.14119 4.92702C5.4411 4.92702 5.69458 4.82349 5.90166 4.61641C6.10873 4.40934 6.21227 4.15585 6.21227 3.85595C6.21227 3.55605 6.10873 3.30256 5.90166 3.09548C5.69458 2.88841 5.4411 2.78487 5.14119 2.78487C4.84129 2.78487 4.58781 2.88841 4.38073 3.09548C4.17366 3.30256 4.07012 3.55605 4.07012 3.85595C4.07012 4.15585 4.17366 4.40934 4.38073 4.61641C4.58781 4.82349 4.84129 4.92702 5.14119 4.92702Z" fill="#7988D2"/>
</svg>
