<svg width="30" height="30" viewBox="0 0 30 30" fill="none" xmlns="http://www.w3.org/2000/svg">
<path fill-rule="evenodd" clip-rule="evenodd" d="M26.4845 18.4369C25.719 17.4141 24.6861 16.6225 23.4995 16.1494L23.4395 16.1269C22.5797 15.7836 21.6462 15.6671 20.7284 15.7886C19.8107 15.9101 18.9396 16.2655 18.1988 16.8206L17.5238 17.325C17.3433 17.46 17.1201 17.5254 16.8952 17.5092C16.6703 17.493 16.4588 17.3963 16.2995 17.2369L12.7632 13.7006C12.6033 13.5411 12.5063 13.3293 12.4901 13.104C12.4739 12.8787 12.5396 12.6551 12.6751 12.4744L13.1813 11.7994C13.7358 11.059 14.0908 10.1886 14.2123 9.27156C14.3338 8.35456 14.2177 7.42173 13.8751 6.5625L13.8507 6.50249C13.3776 5.31586 12.586 4.28291 11.5632 3.5175L11.207 3.24937C10.6418 2.8257 9.98243 2.54535 9.28523 2.43236C8.58803 2.31937 7.87383 2.37711 7.20383 2.60062L6.84758 2.71875C5.88581 3.0392 5.01194 3.57935 4.29527 4.29634C3.5786 5.01333 3.03885 5.88745 2.71883 6.84937C2.17106 8.49955 2.10279 10.2713 2.52196 11.9587C3.32665 15.1756 4.99029 18.1134 7.33508 20.4581L9.54383 22.6669C11.8888 25.011 14.8265 26.674 18.0432 27.4781C19.7307 27.9019 21.5026 27.8344 23.1526 27.2831C24.115 26.9632 24.9897 26.4232 25.707 25.7062C26.4244 24.9892 26.9647 24.1148 27.2851 23.1525L27.4032 22.7962C27.6265 22.1261 27.6839 21.4118 27.5706 20.7146C27.4573 20.0174 27.1766 19.3581 26.7526 18.7931L26.4845 18.4369ZM9.67321 6.03562L9.31696 5.7675C9.15914 5.64935 8.97501 5.57124 8.78037 5.53989C8.58573 5.50854 8.38639 5.52488 8.19946 5.5875L7.84321 5.70562C6.83446 6.04312 6.04321 6.83437 5.70571 7.84312C5.34467 8.92558 5.29979 10.0886 5.57633 11.1956C6.24496 13.8578 7.62253 16.2889 9.56258 18.2306L11.7713 20.4394C13.7133 22.3787 16.1444 23.7557 18.8063 24.4237C19.9126 24.6994 21.0751 24.6544 22.157 24.2944C23.1676 23.9569 23.9588 23.1656 24.2963 22.1569L24.4145 21.8006C24.4771 21.6137 24.4934 21.4143 24.4621 21.2197C24.4307 21.0251 24.3526 20.8409 24.2345 20.6831L23.9663 20.3269C23.5468 19.767 22.9811 19.3337 22.3313 19.0744L22.2713 19.05C21.9135 18.9075 21.5251 18.8592 21.1433 18.9097C20.7615 18.9603 20.3991 19.108 20.0907 19.3387L19.4157 19.845C18.6285 20.435 17.655 20.7213 16.6738 20.6514C15.6925 20.5814 14.7694 20.16 14.0738 19.4644L10.5376 15.9281C9.84145 15.2324 9.4197 14.309 9.34977 13.3273C9.27985 12.3456 9.56646 11.3717 10.157 10.5844L10.6632 9.90937C11.132 9.28312 11.2426 8.45812 10.952 7.73062L10.9276 7.67062C10.6683 7.02087 10.233 6.45516 9.67321 6.03562Z" fill="#12294B"/>
</svg>
