<svg width="287" height="110" viewBox="0 0 287 110" fill="none" xmlns="http://www.w3.org/2000/svg">
<g clip-path="url(#clip0_281_1585)">
<path d="M286.527 0H0V109.742H286.527V0Z" fill="white"/>
<path d="M54.2726 32.5237C54.2726 23.1458 43.2984 15.5635 29.7302 15.5635C16.1621 15.5635 5.18782 23.1458 5.18782 32.5237C5.18782 41.9017 16.1621 49.4839 29.7302 49.4839C43.2984 49.4839 54.2726 41.9017 54.2726 32.5237ZM29.83 52.3771C14.7653 52.3771 2.49414 43.498 2.49414 32.6235C2.49414 21.749 14.7653 12.8699 29.83 12.8699C44.8946 12.8699 57.1658 21.749 57.1658 32.6235C57.1658 43.498 44.8946 52.3771 29.83 52.3771Z" fill="#0C3F6C"/>
<path d="M17.1601 42.7997L7.88184 33.721L11.8725 29.6306L18.058 35.7163L22.9465 32.8231L31.8256 35.1177L60.1591 17.958L64.7484 21.35L32.8233 41.2034L23.8444 38.9088L17.1601 42.7997Z" fill="#DB052C"/>
<path d="M62.2539 35.2173H63.7504L66.6436 49.7831L69.5368 35.2173H71.2328L74.0263 49.7831H74.126L77.0192 35.2173H78.5157L74.9242 51.7784H73.1284L70.3349 37.2126L67.5415 51.7784H65.7457L62.2539 35.2173Z" fill="#0C3F6C"/>
<path d="M81.8076 39.4075H83.2035V51.6786H81.8076V39.4075ZM81.8076 35.2173H83.2035V37.6117H81.8076V35.2173Z" fill="#0C3F6C"/>
<path d="M87.5949 39.4075H88.9916V41.303C89.4904 39.9063 90.6876 39.1082 92.0843 39.1082C92.2839 39.1082 92.3836 39.1082 92.5832 39.2079V40.6046C92.3836 40.6046 92.0843 40.5049 91.8848 40.5049C90.3883 40.5049 88.8918 41.6023 88.8918 43.9967V51.6786H87.4951V39.4075H87.5949Z" fill="#0C3F6C"/>
<path d="M96.1745 40.6046H94.4785V39.4074H96.1745V36.0154H97.5713V39.4074H99.7661V40.6046H97.5713V49.4838C97.5713 50.4814 97.9703 50.7807 98.8682 50.7807C99.1675 50.7807 99.4668 50.7807 99.7661 50.681V51.8781C99.5666 51.8781 99.2673 51.8781 98.7684 51.8781C96.8729 51.8781 96.1745 51.3793 96.1745 49.6833V40.6046Z" fill="#0C3F6C"/>
<path d="M104.854 45.5929C103.158 44.8946 102.459 43.8969 102.459 42.6997C102.459 40.2056 104.056 39.1082 106.151 39.1082C108.445 39.1082 109.543 40.3053 109.543 42.5002V42.8993H108.146V42.6C108.146 41.0037 107.448 40.3053 106.151 40.3053C104.554 40.3053 103.856 41.2032 103.856 42.4004C103.856 43.2983 104.155 43.8969 105.552 44.4955L107.547 45.2936C109.243 45.8922 109.842 47.0894 109.842 48.3864C109.842 50.4815 108.645 52.0776 106.051 52.0776C103.557 52.0776 102.26 51.0801 102.26 48.2866V47.8875H103.656V48.1868C103.656 49.9825 104.455 50.8805 106.051 50.8805C107.547 50.8805 108.445 50.0824 108.445 48.6857C108.445 47.5882 108.046 46.8899 106.749 46.3911L104.854 45.5929Z" fill="#0C3F6C"/>
<path d="M120.916 47.6879C120.716 50.2818 119.22 52.0776 117.025 52.0776C114.431 52.0776 112.935 50.2818 112.935 45.5928C112.935 41.3028 114.431 39.2078 117.225 39.2078C119.519 39.2078 120.916 40.6045 121.016 43.1984H119.619C119.419 41.3028 118.721 40.405 117.225 40.405C115.728 40.405 114.431 41.3028 114.431 45.6925C114.431 50.2818 115.728 50.9801 117.025 50.9801C118.422 50.9801 119.32 49.9825 119.619 47.7876H120.916V47.6879Z" fill="#0C3F6C"/>
<path d="M124.607 35.2173H126.004V41.2032C126.303 39.9063 127.6 39.2079 128.997 39.2079C130.893 39.2079 132.19 40.2056 132.19 42.5002V51.7784H130.793V42.8993C130.793 41.2032 130.095 40.4051 128.698 40.4051C127.102 40.4051 126.004 41.7021 126.004 43.5976V51.8782H124.607V35.2173Z" fill="#0C3F6C"/>
<path d="M142.166 44.7948C141.967 45.1939 141.168 45.4932 140.67 45.5929L139.472 45.8922C138.076 46.2913 137.377 46.9897 137.377 48.4861C137.377 49.8829 138.076 50.8805 139.373 50.8805C141.069 50.8805 142.266 49.5836 142.266 47.3887V44.7948H142.166ZM136.28 43.0988C136.28 40.6046 137.477 39.1082 140.071 39.1082C142.665 39.1082 143.563 40.4051 143.563 42.4004V49.6833C143.563 50.3817 143.762 50.681 144.261 50.681H144.66V51.6786C144.361 51.7784 144.161 51.7784 143.962 51.7784C142.864 51.7784 142.166 51.4791 142.166 50.2819V49.8829C141.568 51.4791 140.37 51.9779 138.974 51.9779C136.779 51.9779 135.881 50.681 135.881 48.4861C135.881 46.8899 136.579 45.5929 138.375 45.0941L140.969 44.3957C141.967 44.0964 142.166 43.8969 142.166 42.4004C142.166 40.8042 141.268 40.3053 140.071 40.3053C138.375 40.3053 137.677 41.303 137.677 43.0988H136.28Z" fill="#0C3F6C"/>
<path d="M148.551 40.6046H146.855V39.4074H148.551V37.9109C148.551 36.2149 148.851 34.918 151.245 34.918C151.644 34.918 151.844 34.918 152.143 35.0177V36.2149C151.944 36.2149 151.744 36.1152 151.445 36.1152C150.447 36.1152 149.948 36.5142 149.948 37.9109V39.4074H152.143V40.6046H149.948V51.7784H148.551V40.6046Z" fill="#0C3F6C"/>
<path d="M155.734 40.6046H154.038V39.4074H155.734V36.0154H157.131V39.4074H159.326V40.6046H157.131V49.4838C157.131 50.4814 157.53 50.7807 158.428 50.7807C158.727 50.7807 159.026 50.7807 159.326 50.681V51.8781C159.126 51.9779 158.827 51.9779 158.328 51.9779C156.432 51.9779 155.734 51.4791 155.734 49.7831V40.6046Z" fill="#0C3F6C"/>
<path d="M164.414 45.5929C162.718 44.8946 162.02 43.8969 162.02 42.6997C162.02 40.2056 163.616 39.1082 165.711 39.1082C168.006 39.1082 169.103 40.3053 169.103 42.5002V42.8993H167.706V42.6C167.706 41.0037 167.008 40.3053 165.711 40.3053C164.115 40.3053 163.417 41.2032 163.417 42.4004C163.417 43.2983 163.716 43.8969 165.113 44.4955L167.108 45.2936C168.804 45.8922 169.403 47.0894 169.403 48.3864C169.403 50.4815 168.205 52.0776 165.611 52.0776C163.117 52.0776 161.82 51.0801 161.82 48.2866V47.8875H163.217V48.1868C163.217 49.9825 164.015 50.8805 165.611 50.8805C167.108 50.8805 168.006 50.0824 168.006 48.6857C168.006 47.5882 167.607 46.8899 166.31 46.3911L164.414 45.5929Z" fill="#0C3F6C"/>
<path d="M173.593 40.6046H171.896V39.4074H173.593V37.9109C173.593 36.2149 173.892 34.918 176.286 34.918C176.685 34.918 176.885 34.918 177.184 35.0177V36.2149C176.985 36.2149 176.785 36.1152 176.486 36.1152C175.488 36.1152 174.989 36.5142 174.989 37.9109V39.4074H177.184V40.6046H174.989V51.7784H173.593V40.6046Z" fill="#0C3F6C"/>
<path d="M184.966 35.0178H186.363V37.4122H184.966V35.0178ZM181.474 35.0178H182.871V37.4122H181.474V35.0178ZM183.969 50.8806C185.565 50.8806 186.762 49.5836 186.762 45.593C186.762 41.7021 185.565 40.3054 183.969 40.3054C182.372 40.3054 181.175 41.7021 181.175 45.593C181.175 49.4839 182.372 50.8806 183.969 50.8806ZM183.969 39.1082C186.662 39.1082 188.259 41.3031 188.259 45.4932C188.259 49.7832 186.762 51.978 183.969 51.978C181.275 51.978 179.679 49.7832 179.679 45.4932C179.679 41.3031 181.175 39.1082 183.969 39.1082Z" fill="#0C3F6C"/>
<path d="M191.85 39.4075H193.246V41.303C193.745 39.9063 194.943 39.1082 196.339 39.1082C196.539 39.1082 196.639 39.1082 196.838 39.2079V40.6046C196.639 40.6046 196.339 40.5049 196.14 40.5049C194.643 40.5049 193.147 41.6023 193.147 43.9967V51.6786H191.75V39.4075H191.85Z" fill="#0C3F6C"/>
<path d="M203.522 50.8804C204.919 50.8804 206.216 50.1821 206.216 45.5928C206.216 41.0036 204.919 40.3053 203.522 40.3053C202.125 40.3053 200.829 41.0036 200.829 45.5928C200.928 50.1821 202.225 50.8804 203.522 50.8804ZM206.415 49.6832C206.016 51.08 204.819 51.9779 203.323 51.9779C200.629 51.9779 199.332 49.783 199.332 45.4931C199.332 41.2031 200.529 39.1081 203.323 39.1081C204.819 39.1081 205.917 39.9062 206.216 41.2031V35.1174H207.613V51.6786H206.316V49.6832H206.415Z" fill="#0C3F6C"/>
<path d="M218.088 44.4954C218.088 41.4026 217.19 40.3052 215.494 40.3052C213.798 40.3052 212.9 41.4026 212.9 44.4954H218.088ZM219.385 47.6879C219.185 50.2818 217.788 52.0776 215.394 52.0776C212.8 52.0776 211.304 50.2818 211.304 45.5928C211.304 41.3028 212.8 39.2078 215.594 39.2078C218.287 39.2078 219.584 41.1033 219.584 45.1937V45.6925H212.9V46.2911C212.9 49.8827 214.197 50.9801 215.494 50.9801C216.99 50.9801 217.888 49.9825 218.088 47.7876H219.385V47.6879Z" fill="#0C3F6C"/>
<path d="M223.375 39.4075H224.772V41.303C225.271 39.9063 226.468 39.1082 227.865 39.1082C228.064 39.1082 228.164 39.1082 228.363 39.2079V40.6046C228.164 40.6046 227.865 40.5049 227.665 40.5049C226.169 40.5049 224.672 41.6023 224.672 43.9967V51.6786H223.275V39.4075H223.375Z" fill="#0C3F6C"/>
<path d="M231.456 39.4075H232.853V48.0871C232.853 50.0824 233.551 50.8805 234.948 50.8805C236.544 50.8805 237.642 49.5836 237.642 47.688V39.4075H239.038V51.6787H237.741V49.9826C237.043 51.3794 235.846 51.978 234.549 51.978C232.653 51.978 231.356 50.9803 231.356 48.6857V39.4075H231.456Z" fill="#0C3F6C"/>
<path d="M243.329 39.4075H244.626V41.1035H244.726C245.424 39.7067 246.621 39.1082 247.918 39.1082C249.814 39.1082 251.111 40.1058 251.111 42.4004V51.6786H249.714V42.7995C249.714 41.1035 249.016 40.3053 247.619 40.3053C246.023 40.3053 244.925 41.6023 244.925 43.4978V51.7784H243.529V39.4075H243.329Z" fill="#0C3F6C"/>
<path d="M258.892 50.5811C260.588 50.5811 261.486 49.3839 261.486 45.3932C261.486 41.5024 260.489 40.3052 258.892 40.3052C257.196 40.3052 256.298 41.5024 256.298 45.3932C256.199 49.3839 257.196 50.5811 258.892 50.5811ZM261.586 39.4073H262.883V50.8804C262.883 54.2724 261.586 56.0682 258.793 56.0682C256.398 56.0682 255.101 54.7712 255.101 53.0752H256.498C256.498 54.2724 257.595 54.9708 258.793 54.9708C260.489 54.9708 261.386 53.7736 261.386 51.5787V49.5834C260.987 51.0799 259.79 51.7783 258.493 51.7783C256.598 51.7783 254.702 50.4813 254.702 45.5928C254.702 41.3028 255.899 39.2078 258.693 39.2078C260.09 39.2078 261.087 40.0059 261.586 41.4026V39.4073Z" fill="#0C3F6C"/>
<path d="M3.39258 59.9595H4.7893V68.6391H4.88907L11.1743 59.9595H12.7705L7.68251 66.8433L13.3691 76.5206H11.7729L6.78462 68.0405L4.7893 70.7342V76.5206H3.39258V59.9595Z" fill="#DB052C"/>
<path d="M16.1621 64.1494H17.5588V66.0449H17.6586C18.1574 64.6482 19.3546 63.8501 20.7513 63.8501C20.9509 63.8501 21.0506 63.8501 21.2502 63.9499V65.3466C21.0506 65.3466 20.7513 65.2468 20.5518 65.2468C19.0553 65.2468 17.5588 66.3442 17.5588 68.7386V76.4206H16.1621V64.1494Z" fill="#DB052C"/>
<path d="M29.9294 69.2375C29.9294 66.1448 29.0315 65.0474 27.3355 65.0474C25.6395 65.0474 24.7416 66.1448 24.7416 69.2375H29.9294ZM31.3261 72.43C31.1266 75.024 29.6301 76.8197 27.3355 76.8197C24.7416 76.8197 23.2451 75.024 23.2451 70.335C23.2451 66.045 24.7416 63.95 27.535 63.95C30.2287 63.95 31.5257 65.8455 31.5257 69.9359V70.4347H24.8414V71.0333C24.8414 74.6249 26.1383 75.7223 27.4353 75.7223C28.9318 75.7223 29.8297 74.7247 30.0292 72.5298H31.3261V72.43Z" fill="#DB052C"/>
<path d="M35.3174 64.1496H36.7129V76.4208H35.3174V64.1496ZM35.3174 59.9595H36.7129V62.3538H35.3174V59.9595Z" fill="#DB052C"/>
<path d="M43.0988 70.3349C41.4028 69.6365 40.7044 68.6389 40.7044 67.4417C40.7044 64.9475 42.3007 63.8501 44.3957 63.8501C46.6904 63.8501 47.7878 65.0473 47.7878 67.2421V67.5414H46.3911V67.2421C46.3911 65.6459 45.6927 64.9475 44.3957 64.9475C42.7995 64.9475 42.1011 65.8454 42.1011 67.0426C42.1011 67.9405 42.4004 68.5391 43.7972 69.1377L45.7925 69.9358C47.4885 70.5344 48.0871 71.7316 48.0871 73.0285C48.0871 75.1236 46.8899 76.7199 44.296 76.7199C41.8018 76.7199 40.5049 75.7222 40.5049 72.9288V72.5297H41.9016V72.829C41.9016 74.6248 42.6997 75.5227 44.296 75.5227C45.7925 75.5227 46.6904 74.7246 46.6904 73.3278C46.6904 72.2304 46.2913 71.5321 44.9943 71.0332L43.0988 70.3349Z" fill="#DB052C"/>
<path d="M59.0609 67.6414H61.6549C63.9495 67.6414 65.3462 66.544 65.3462 64.3492C65.3462 62.3539 64.4483 61.0569 61.7546 61.0569H59.0609V67.6414ZM57.5645 59.9595H62.5527C65.3462 59.9595 66.8427 61.5557 66.8427 64.1496C66.8427 66.145 66.0446 67.9407 63.8497 68.3398C65.9448 68.5393 66.6431 69.7365 66.6431 72.2307V74.0265C66.6431 74.9243 66.7429 75.8222 67.3415 76.4208H65.6455C65.3462 75.8222 65.2464 75.0241 65.2464 74.1262V72.7295C65.1467 69.8363 64.6478 68.8386 61.9542 68.8386H59.1607V76.4208H57.6641V59.9595H57.5645Z" fill="#DB052C"/>
<path d="M77.0193 69.2375C76.9195 66.1448 76.1214 65.0474 74.4254 65.0474C72.7293 65.0474 71.8315 66.1448 71.8315 69.2375H77.0193ZM78.416 72.43C78.2165 75.024 76.8197 76.8197 74.4254 76.8197C71.8314 76.8197 70.335 75.024 70.335 70.335C70.335 66.045 71.8315 63.95 74.6249 63.95C77.3186 63.95 78.6155 65.8455 78.6155 69.9359V70.4347H71.8315V71.0333C71.8315 74.6249 73.1284 75.7223 74.4254 75.7223C75.9218 75.7223 76.8197 74.7247 77.0193 72.5298H78.416V72.43Z" fill="#DB052C"/>
<path d="M82.3066 64.1494H83.6036V65.8454C84.302 64.4487 85.4991 63.8501 86.7961 63.8501C88.6917 63.8501 89.9886 64.8478 89.9886 67.1424V76.4206H88.5919V67.5414C88.5919 65.8454 87.8935 65.0473 86.4968 65.0473C84.9006 65.0473 83.8031 66.3442 83.8031 68.2398V76.5204H82.4064V64.1494H82.3066Z" fill="#DB052C"/>
<path d="M97.9706 75.6224C99.3673 75.6224 100.664 74.924 100.664 70.3348C100.664 65.7456 99.3673 65.0472 97.9706 65.0472C96.5739 65.0472 95.2769 65.7456 95.2769 70.3348C95.2769 74.924 96.5739 75.6224 97.9706 75.6224ZM100.764 74.4252C100.365 75.8219 99.1678 76.7198 97.6713 76.7198C94.9776 76.7198 93.6807 74.525 93.6807 70.235C93.6807 65.9451 94.8779 63.85 97.6713 63.85C99.1678 63.85 100.265 64.6481 100.565 65.9451V59.8594H101.961V76.4205H100.764V74.4252Z" fill="#DB052C"/>
<path d="M108.147 70.3349C106.451 69.6365 105.752 68.6389 105.752 67.4417C105.752 64.9475 107.349 63.8501 109.444 63.8501C111.738 63.8501 112.836 65.0473 112.836 67.2421V67.5414H111.439V67.2421C111.439 65.6459 110.741 64.9475 109.444 64.9475C107.847 64.9475 107.149 65.8454 107.149 67.0426C107.149 67.9405 107.448 68.5391 108.845 69.1377L110.84 69.9358C112.536 70.5344 113.135 71.7316 113.135 73.0285C113.135 75.1236 111.938 76.7199 109.344 76.7199C106.85 76.7199 105.553 75.7222 105.553 72.9288V72.5297H106.949V72.829C106.949 74.6248 107.748 75.5227 109.344 75.5227C110.84 75.5227 111.738 74.7246 111.738 73.3278C111.738 72.2304 111.339 71.5321 110.042 71.0332L108.147 70.3349Z" fill="#DB052C"/>
<path d="M120.816 75.6227C122.213 75.6227 123.51 74.9243 123.51 70.3351C123.51 65.7459 122.213 65.0475 120.816 65.0475C119.419 65.0475 118.122 65.7459 118.122 70.3351C118.122 74.9243 119.32 75.6227 120.816 75.6227ZM116.726 59.9595H118.122V66.0452C118.422 64.7482 119.519 63.9501 121.016 63.9501C123.709 63.9501 125.006 66.1449 125.006 70.3351C125.006 74.625 123.809 76.8199 121.016 76.8199C119.519 76.8199 118.322 75.922 118.023 74.5253V76.5206H116.726V59.9595Z" fill="#DB052C"/>
<path d="M128.798 64.1492H130.195V72.8288C130.195 74.8241 130.893 75.6222 132.29 75.6222C133.886 75.6222 134.983 74.3253 134.983 72.4297V64.1492H136.38V76.4204H135.083V74.7243C134.385 76.1211 133.188 76.7197 131.891 76.7197C129.995 76.7197 128.698 75.722 128.698 73.4274V64.1492H128.798Z" fill="#DB052C"/>
<path d="M140.67 64.1494H142.067V66.0449C142.565 64.6482 143.763 63.8501 145.159 63.8501C145.359 63.8501 145.459 63.8501 145.658 63.9499V65.3466C145.459 65.3466 145.159 65.2468 144.96 65.2468C143.463 65.2468 141.967 66.3442 141.967 68.7386V76.4206H140.67V64.1494Z" fill="#DB052C"/>
<path d="M152.342 75.3233C154.038 75.3233 154.936 74.1261 154.936 70.1354C154.936 66.2446 153.938 65.0474 152.342 65.0474C150.646 65.0474 149.748 66.2446 149.748 70.1354C149.748 74.1261 150.746 75.3233 152.342 75.3233ZM155.136 64.1495H156.433V75.6226C156.433 79.0146 155.136 80.8104 152.442 80.8104C150.048 80.8104 148.751 79.5134 148.751 77.8174H150.147C150.147 79.0146 151.245 79.7129 152.442 79.7129C154.138 79.7129 155.036 78.5158 155.036 76.3209V74.3256C154.637 75.8221 153.44 76.5204 152.143 76.5204C150.247 76.5204 148.352 75.2235 148.352 70.335C148.352 66.045 149.549 63.95 152.342 63.95C153.639 63.95 154.737 64.7481 155.235 66.1448V64.1495H155.136Z" fill="#DB052C"/>
<path d="M166.608 69.2375H161.62V70.5345H166.608V69.2375Z" fill="#DB052C"/>
<path d="M171.896 59.9595H180.077V61.1567H173.293V67.2424H179.578V68.4396H173.293V75.2236H180.277V76.5206H171.896V59.9595Z" fill="#DB052C"/>
<path d="M191.251 72.43C191.051 75.024 189.555 76.8197 187.36 76.8197C184.766 76.8197 183.27 75.024 183.27 70.335C183.27 66.045 184.766 63.95 187.559 63.95C189.854 63.95 191.251 65.3467 191.351 67.9406H189.954C189.754 66.045 189.056 65.1471 187.559 65.1471C186.063 65.1471 184.766 66.045 184.766 70.4347C184.766 75.1237 186.063 75.7223 187.36 75.7223C188.757 75.7223 189.655 74.7247 189.954 72.5298H191.251V72.43Z" fill="#DB052C"/>
<path d="M194.743 59.9595H196.14V70.3351H196.24L200.929 64.1496H202.724L198.933 68.7389L203.323 76.5206H201.627L197.936 70.0358L196.14 72.1309V76.5206H194.743V59.9595Z" fill="#DB052C"/>
<path d="M212.202 69.2375C212.102 66.1448 211.304 65.0474 209.608 65.0474C207.912 65.0474 207.014 66.1448 207.014 69.2375H212.202ZM213.499 72.43C213.299 75.024 211.803 76.8197 209.508 76.8197C206.914 76.8197 205.418 75.024 205.418 70.335C205.418 66.045 206.914 63.95 209.708 63.95C212.402 63.95 213.699 65.8455 213.699 69.9359V70.4347H207.014V71.0333C207.014 74.6249 208.311 75.7223 209.608 75.7223C211.105 75.7223 212.003 74.7247 212.202 72.5298H213.499V72.43Z" fill="#DB052C"/>
<path d="M217.489 64.1494H218.886V66.0449C219.385 64.6482 220.582 63.8501 221.979 63.8501C222.178 63.8501 222.278 63.8501 222.478 63.9499V65.3466C222.278 65.3466 221.979 65.2468 221.779 65.2468C220.283 65.2468 218.786 66.3442 218.786 68.7386V76.4206H217.489V64.1494Z" fill="#DB052C"/>
<path d="M225.57 64.1494H226.867V65.8454C227.566 64.4487 228.763 63.8501 230.06 63.8501C231.955 63.8501 233.252 64.8478 233.252 67.1424V76.4206H231.856V67.5414C231.856 65.8454 231.157 65.0473 229.76 65.0473C228.164 65.0473 227.067 66.3442 227.067 68.2398V76.5204H225.67V64.1494H225.57Z" fill="#DB052C"/>
<path d="M237.941 65.3466H236.245V64.1494H237.941V62.6529C237.941 60.9569 238.24 59.6599 240.635 59.6599C241.034 59.6599 241.233 59.6599 241.533 59.7597V60.9569C241.333 60.9569 241.134 60.8571 240.834 60.8571C239.837 60.8571 239.338 61.2562 239.338 62.6529V64.1494H241.533V65.3466H239.338V76.5203H237.941V65.3466Z" fill="#DB052C"/>
<path d="M249.315 59.7595H250.712V62.1539H249.315V59.7595ZM245.823 59.7595H247.22V62.1539H245.823V59.7595ZM248.317 75.6223C249.914 75.6223 251.111 74.3253 251.111 70.3347C251.111 66.4438 249.914 65.0471 248.317 65.0471C246.721 65.0471 245.524 66.3441 245.524 70.3347C245.524 74.2256 246.721 75.6223 248.317 75.6223ZM248.317 63.8499C251.011 63.8499 252.607 66.0448 252.607 70.2349C252.607 74.5249 251.111 76.7197 248.317 76.7197C245.624 76.7197 244.027 74.5249 244.027 70.2349C244.027 66.0448 245.524 63.8499 248.317 63.8499Z" fill="#DB052C"/>
<path d="M256.198 64.1494H257.595V66.0449C258.094 64.6482 259.291 63.8501 260.688 63.8501C260.887 63.8501 260.987 63.8501 261.187 63.9499V65.3466C260.987 65.3466 260.688 65.2468 260.488 65.2468C258.992 65.2468 257.495 66.3442 257.495 68.7386V76.4206H256.099V64.1494H256.198Z" fill="#DB052C"/>
<path d="M267.972 75.6224C269.368 75.6224 270.665 74.924 270.665 70.3348C270.665 65.7456 269.368 65.0472 267.972 65.0472C266.575 65.0472 265.278 65.7456 265.278 70.3348C265.278 74.924 266.575 75.6224 267.972 75.6224ZM270.765 74.4252C270.366 75.8219 269.169 76.7198 267.672 76.7198C264.979 76.7198 263.682 74.525 263.682 70.235C263.682 65.9451 264.879 63.85 267.672 63.85C269.169 63.85 270.266 64.6481 270.565 65.9451V59.8594H271.962V76.4205H270.665V74.4252H270.765Z" fill="#DB052C"/>
<path d="M282.437 69.2375C282.437 66.1448 281.54 65.0474 279.843 65.0474C278.147 65.0474 277.25 66.1448 277.25 69.2375H282.437ZM283.734 72.43C283.535 75.024 282.038 76.8197 279.744 76.8197C277.15 76.8197 275.653 75.024 275.653 70.335C275.653 66.045 277.15 63.95 279.943 63.95C282.637 63.95 283.934 65.8455 283.934 69.9359V70.4347H277.25V71.0333C277.25 74.6249 278.547 75.7223 279.843 75.7223C281.34 75.7223 282.238 74.7247 282.437 72.5298H283.734V72.43Z" fill="#DB052C"/>
</g>
<defs>
<clipPath id="clip0_281_1585">
<rect width="286.827" height="109.742" fill="white"/>
</clipPath>
</defs>
</svg>
