<svg width="400" height="119" viewBox="0 0 400 119" fill="none" xmlns="http://www.w3.org/2000/svg">
<path fill-rule="evenodd" clip-rule="evenodd" d="M156.267 89.1896H159.557V82.7607C159.557 81.7052 159.509 80.6977 159.366 79.7861C159.271 78.8745 159.175 78.2029 159.128 77.7711C159.319 78.3468 159.509 78.9705 159.795 79.6422C160.034 80.3138 160.368 81.0335 160.701 81.8491L163.944 89.1417H167.568V72.1577H164.278V79.1144C164.278 79.93 164.326 80.7456 164.421 81.5613C164.516 82.3769 164.564 83.0965 164.659 83.6243H164.612C164.421 83.0486 164.23 82.3769 163.992 81.7052C163.753 80.9855 163.467 80.3139 163.181 79.6901L159.7 72.1577H156.267V89.1896Z" fill="#0068B4"/>
<path fill-rule="evenodd" clip-rule="evenodd" d="M175.675 89.4775C177.391 89.5255 178.727 88.9978 179.68 87.9902C180.634 86.9827 181.063 85.3035 181.111 82.9526C181.111 80.6018 180.634 78.9226 179.68 77.8671C178.727 76.8116 177.439 76.3318 175.675 76.3318C173.958 76.3318 172.623 76.8116 171.717 77.8191C170.763 78.8266 170.334 80.5058 170.286 82.8087C170.286 85.1596 170.763 86.8388 171.717 87.8943C172.623 88.9978 173.958 89.5255 175.675 89.4775ZM175.722 86.9348C175.055 86.9827 174.578 86.6949 174.339 86.1191C174.101 85.5434 173.958 84.4879 174.006 82.9526C174.006 81.3214 174.101 80.2179 174.339 79.6902C174.578 79.1145 175.055 78.8746 175.722 78.9226C176.152 78.9226 176.533 79.0185 176.771 79.2104C177.01 79.4023 177.201 79.7861 177.296 80.3619C177.391 80.9376 177.439 81.7532 177.439 82.8567C177.439 84.4399 177.344 85.4954 177.105 86.1191C176.819 86.6949 176.39 86.9827 175.722 86.9348Z" fill="#0068B4"/>
<path fill-rule="evenodd" clip-rule="evenodd" d="M183.494 89.1896H186.928V80.3138C187.166 80.1219 187.452 79.9779 187.738 79.882C188.024 79.786 188.358 79.738 188.74 79.738C188.978 79.738 189.216 79.786 189.407 79.834C189.598 79.882 189.789 79.9779 189.979 80.0739L190.599 76.6195C190.504 76.5715 190.361 76.5715 190.17 76.5236C189.979 76.4756 189.836 76.4756 189.646 76.4756C189.026 76.4756 188.501 76.6195 187.977 76.9074C187.452 77.1952 187.023 77.5791 186.641 78.1068L186.308 76.6675H183.494V89.1896Z" fill="#0068B4"/>
<path fill-rule="evenodd" clip-rule="evenodd" d="M196.132 89.4774C196.752 89.4774 197.324 89.3335 197.801 89.0936C198.278 88.8537 198.754 88.4699 199.184 87.9901L199.47 89.1416H202.283V71.2461H198.85V77.4831C198.564 77.1953 198.182 76.9074 197.705 76.6675C197.229 76.4276 196.656 76.2837 196.036 76.2837C195.083 76.2837 194.32 76.4756 193.7 76.8594C193.08 77.2432 192.651 77.9629 192.317 78.9225C192.031 79.882 191.888 81.2733 191.888 83.0005C191.888 85.3994 192.269 87.1266 193.032 88.0381C193.747 89.0936 194.797 89.5254 196.132 89.4774ZM197.085 86.7427C196.466 86.7907 196.084 86.5508 195.846 86.0231C195.655 85.4953 195.512 84.5358 195.56 83.0005C195.56 81.4173 195.655 80.4097 195.893 79.834C196.132 79.3063 196.561 79.0664 197.229 79.1144C197.562 79.1144 197.896 79.2103 198.182 79.3063C198.468 79.4502 198.659 79.5941 198.85 79.786V86.0231C198.611 86.215 198.373 86.4069 198.135 86.5029C197.801 86.6468 197.467 86.7427 197.085 86.7427Z" fill="#0068B4"/>
<path fill-rule="evenodd" clip-rule="evenodd" d="M204.238 79.3064H205.478V89.1897H208.911V79.3064H211.009V76.6677H208.863V74.8925C208.863 74.4607 208.959 74.1728 209.102 73.9809C209.245 73.789 209.531 73.6931 209.865 73.6931C210.103 73.6931 210.342 73.7411 210.532 73.789C210.723 73.837 210.914 73.885 211.057 73.9809L211.868 71.6301C211.582 71.4861 211.2 71.3422 210.723 71.1983C210.246 71.1023 209.674 71.0063 209.007 71.0063C208.387 71.0063 207.767 71.1023 207.242 71.2942C206.718 71.4861 206.241 71.8699 205.907 72.4936C205.573 73.0694 205.382 73.9809 205.382 75.1324V76.6197H204.143V79.3064H204.238Z" fill="#0068B4"/>
<path fill-rule="evenodd" clip-rule="evenodd" d="M212.917 89.1896H216.35V80.3138C216.589 80.1219 216.875 79.9779 217.161 79.882C217.447 79.786 217.781 79.738 218.162 79.738C218.401 79.738 218.639 79.786 218.83 79.834C219.021 79.882 219.212 79.9779 219.402 80.0739L220.022 76.6195C219.927 76.5715 219.784 76.5715 219.593 76.5236C219.402 76.4756 219.259 76.4756 219.068 76.4756C218.449 76.4756 217.924 76.6195 217.399 76.9074C216.875 77.1952 216.446 77.5791 216.064 78.1068L215.73 76.6675H212.917V89.1896Z" fill="#0068B4"/>
<path fill-rule="evenodd" clip-rule="evenodd" d="M222.74 89.1897H226.174V76.7156H221.31V78.9706L222.74 79.3064V89.1897ZM224.457 75.2283C225.029 75.2283 225.506 74.9885 225.935 74.6046C226.317 74.2208 226.507 73.741 226.555 73.1173C226.555 72.5416 226.317 72.0139 225.935 71.6301C225.554 71.2462 225.029 71.0543 224.457 71.0063C223.885 71.0063 223.408 71.2462 223.026 71.6301C222.645 72.0139 222.454 72.5416 222.406 73.1173C222.406 73.6931 222.597 74.1728 223.026 74.5567C223.408 75.0364 223.885 75.2283 224.457 75.2283Z" fill="#0068B4"/>
<path fill-rule="evenodd" clip-rule="evenodd" d="M234.662 89.4777C235.568 89.4777 236.331 89.3338 237.046 89.046C237.761 88.7581 238.333 88.4222 238.763 87.9904L237.284 85.6875C236.903 85.9754 236.521 86.2633 236.092 86.4552C235.663 86.6471 235.138 86.743 234.566 86.791C233.803 86.839 233.279 86.6471 232.945 86.2633C232.611 85.8795 232.42 85.1118 232.325 84.0083H239.001V83.0008C239.001 80.6979 238.62 79.0187 237.809 77.9632C236.998 76.9077 235.663 76.332 233.803 76.38C232.182 76.332 230.894 76.8597 229.988 77.8673C229.082 78.8748 228.605 80.554 228.605 82.9049C228.605 85.2558 229.082 86.9349 230.036 87.9904C231.085 88.998 232.563 89.5257 234.662 89.4777ZM233.946 78.8748C234.566 78.8748 234.995 79.0667 235.234 79.5465C235.425 79.9783 235.568 80.6979 235.568 81.7054H232.373C232.42 80.602 232.563 79.8343 232.802 79.4505C232.993 79.0187 233.422 78.8268 233.946 78.8748Z" fill="#0068B4"/>
<path fill-rule="evenodd" clip-rule="evenodd" d="M244.915 89.4775C246.488 89.4775 247.633 89.0937 248.396 88.3741C249.111 87.6544 249.492 86.6469 249.492 85.3515C249.445 84.0561 249.159 83.1446 248.491 82.6168C247.871 82.0411 247.06 81.6573 246.059 81.4174C245.391 81.2255 244.915 81.0815 244.676 80.8896C244.438 80.7457 244.295 80.4578 244.342 80.074C244.342 79.7382 244.438 79.4983 244.676 79.3064C244.915 79.1624 245.201 79.0665 245.582 79.0665C246.059 79.0665 246.536 79.1145 246.917 79.2104C247.347 79.3064 247.776 79.4503 248.157 79.6902L249.016 77.0994C248.491 76.8595 247.919 76.6676 247.347 76.5237C246.774 76.3798 246.059 76.3318 245.201 76.3318C243.866 76.3318 242.816 76.6676 242.101 77.2913C241.386 77.915 241.004 78.8746 240.957 80.122C240.957 81.2734 241.243 82.137 241.767 82.7128C242.292 83.2885 243.007 83.7203 243.913 83.9602C244.676 84.1521 245.248 84.392 245.582 84.5839C245.916 84.7758 246.059 85.1116 246.059 85.4954C246.059 85.8793 245.916 86.1671 245.63 86.311C245.344 86.503 244.915 86.5989 244.342 86.5509C243.818 86.5509 243.293 86.455 242.769 86.311C242.292 86.1191 241.815 85.9272 241.386 85.6394L240.289 88.2781C240.766 88.566 241.434 88.8538 242.197 89.0458C243.007 89.3816 243.913 89.4775 244.915 89.4775Z" fill="#0068B4"/>
<path fill-rule="evenodd" clip-rule="evenodd" d="M254.69 89.4296C255.119 89.4296 255.5 89.3816 255.834 89.2857C256.168 89.1897 256.454 89.1417 256.645 89.0458L256.311 86.7908C256.311 86.7908 256.263 86.7908 256.168 86.7908C256.073 86.7908 256.025 86.7908 255.977 86.7908C255.596 86.7908 255.31 86.7429 255.214 86.5989C255.071 86.455 255.024 86.1671 255.024 85.6874V71.1982H251.59V85.4475C251.543 86.7909 251.733 87.7984 252.115 88.4221C252.592 89.1417 253.45 89.4296 254.69 89.4296Z" fill="#0068B4"/>
<path fill-rule="evenodd" clip-rule="evenodd" d="M261.652 89.4775C262.32 89.4775 262.892 89.3336 263.369 89.0937C263.846 88.8538 264.227 88.566 264.561 88.1822C264.656 88.422 264.704 88.6619 264.799 88.8538C264.847 89.0458 264.895 89.1417 264.895 89.1417H267.613V80.3619C267.613 78.9226 267.279 77.8671 266.564 77.2434C265.848 76.6196 264.704 76.3318 263.178 76.3318C262.224 76.3318 261.318 76.4757 260.555 76.7636C259.792 77.0514 259.029 77.3873 258.362 77.8671L259.601 80.2179C260.078 79.9301 260.603 79.6902 261.127 79.4503C261.652 79.2584 262.224 79.1145 262.844 79.1145C263.416 79.1145 263.798 79.2584 263.989 79.5463C264.179 79.8341 264.275 80.2659 264.227 80.8896V81.3694H263.464C261.604 81.3694 260.269 81.6573 259.363 82.3289C258.505 82.9526 258.028 84.0081 258.076 85.4475C258.076 86.6949 258.362 87.6544 258.934 88.3741C259.458 89.1417 260.364 89.4775 261.652 89.4775ZM262.606 87.1267C262.177 87.1267 261.843 87.0307 261.652 86.7428C261.461 86.503 261.366 86.0712 261.366 85.4475C261.318 84.7758 261.509 84.296 261.843 84.0081C262.177 83.7203 262.892 83.5763 263.941 83.5763H264.132V86.503C263.941 86.6949 263.702 86.8388 263.464 86.9827C263.226 87.0307 262.94 87.1267 262.606 87.1267Z" fill="#0068B4"/>
<path fill-rule="evenodd" clip-rule="evenodd" d="M270.427 89.1897H273.86V79.8821C274.146 79.6422 274.432 79.4503 274.718 79.3543C275.004 79.2104 275.338 79.1624 275.672 79.1624C276.054 79.1624 276.292 79.2584 276.53 79.4503C276.721 79.6422 276.817 80.026 276.817 80.6497V89.2377H280.25V79.8821C280.25 78.6347 279.964 77.7231 279.439 77.1954C278.867 76.6676 278.104 76.4277 277.007 76.4277C276.244 76.4277 275.577 76.5717 275.004 76.8595C274.432 77.1474 273.955 77.4832 273.478 77.963L273.192 76.7636H270.379V89.1897H270.427Z" fill="#0068B4"/>
<path fill-rule="evenodd" clip-rule="evenodd" d="M286.831 89.4774C287.451 89.4774 288.023 89.3335 288.5 89.0936C288.977 88.8537 289.454 88.4699 289.883 87.9901L290.169 89.1416H292.982V71.2461H289.549V77.4831C289.263 77.1953 288.881 76.9074 288.405 76.6675C287.928 76.4276 287.356 76.2837 286.736 76.2837C285.782 76.2837 285.019 76.4756 284.399 76.8594C283.779 77.2432 283.35 77.9629 283.016 78.9225C282.73 79.882 282.587 81.2733 282.587 83.0005C282.587 85.3994 282.968 87.1266 283.731 88.0381C284.494 89.0936 285.496 89.5254 286.831 89.4774ZM287.785 86.7427C287.165 86.7907 286.783 86.5508 286.545 86.0231C286.354 85.4953 286.211 84.5358 286.259 83.0005C286.259 81.4173 286.354 80.4097 286.593 79.834C286.831 79.3063 287.26 79.0664 287.928 79.1144C288.262 79.1144 288.595 79.2103 288.834 79.3063C289.12 79.4502 289.311 79.5941 289.501 79.786V86.0231C289.263 86.215 289.025 86.4069 288.786 86.5029C288.5 86.6468 288.166 86.7427 287.785 86.7427Z" fill="#0068B4"/>
<path fill-rule="evenodd" clip-rule="evenodd" d="M158.46 65.5369H162.275L163.658 58.3883C163.801 57.5247 163.944 56.7091 164.039 55.8455C164.135 54.9819 164.182 54.3102 164.23 53.7345H164.278C164.325 54.3102 164.373 54.9819 164.469 55.8455C164.564 56.6611 164.659 57.5247 164.85 58.4363L166.233 65.5369H169.952L173.29 48.553H169.619L168.665 54.2623C168.474 55.6056 168.331 56.853 168.236 58.0045C168.14 59.2039 168.045 60.2114 167.997 61.0271H167.95C167.854 60.0675 167.759 59.012 167.616 57.8606C167.473 56.7091 167.282 55.6536 167.139 54.6941L165.947 48.553H162.847L161.655 54.6941C161.369 56.1334 161.178 57.3808 161.035 58.4363C160.892 59.4918 160.844 60.3554 160.797 60.9791H160.701C160.701 60.6912 160.654 60.1635 160.606 59.4918C160.558 58.7721 160.511 57.9565 160.368 57.045C160.272 56.1334 160.129 55.2218 159.986 54.3102L158.937 48.553H155.122L158.46 65.5369Z" fill="#0068B4"/>
<path fill-rule="evenodd" clip-rule="evenodd" d="M175.913 65.5369H179.347V53.0628H174.53V55.3177L175.961 55.6536V65.5369H175.913ZM177.63 51.5755C178.202 51.5755 178.727 51.3356 179.108 50.9518C179.49 50.568 179.68 50.0882 179.728 49.4645C179.728 48.8888 179.49 48.409 179.108 47.9772C178.727 47.5934 178.25 47.4015 177.63 47.3535C177.058 47.3535 176.581 47.5934 176.199 47.9772C175.818 48.361 175.627 48.8888 175.579 49.4645C175.579 50.0402 175.77 50.52 176.152 50.9038C176.581 51.3836 177.058 51.5755 177.63 51.5755Z" fill="#0068B4"/>
<path fill-rule="evenodd" clip-rule="evenodd" d="M182.351 65.5371H185.784V56.6133C186.022 56.4214 186.309 56.2775 186.595 56.1815C186.881 56.0856 187.215 56.0376 187.596 56.0376C187.834 56.0376 188.073 56.0856 188.264 56.1336C188.454 56.1815 188.645 56.2775 188.836 56.3734L189.456 52.9191C189.36 52.8711 189.217 52.8711 189.027 52.8231C188.836 52.7751 188.693 52.7751 188.502 52.7751C187.882 52.7751 187.358 52.9191 186.833 53.2069C186.309 53.4948 185.879 53.8786 185.498 54.4064L185.164 53.015H182.351V65.5371Z" fill="#0068B4"/>
<path fill-rule="evenodd" clip-rule="evenodd" d="M190.505 55.6535H191.745V62.7062C191.745 63.9056 192.078 64.7212 192.698 65.153C193.318 65.6328 194.177 65.8247 195.226 65.8247C195.798 65.8247 196.275 65.7767 196.656 65.6328C197.038 65.5369 197.371 65.3929 197.61 65.249L197.133 62.8981C197.038 62.9461 196.895 62.9941 196.704 63.042C196.513 63.09 196.322 63.138 196.036 63.138C195.75 63.138 195.512 63.042 195.369 62.8981C195.226 62.7062 195.13 62.3704 195.13 61.8426V55.6056H197.419V53.0148H195.13V49.4165L191.697 49.9922V53.0628H190.457V55.6535H190.505Z" fill="#0068B4"/>
<path fill-rule="evenodd" clip-rule="evenodd" d="M203.285 65.8247C204.859 65.8247 206.003 65.4409 206.766 64.7212C207.481 64.0016 207.863 62.9941 207.863 61.6987C207.863 60.4033 207.529 59.4917 206.861 58.964C206.242 58.3882 205.431 58.0044 204.43 57.7645C203.762 57.5726 203.285 57.4287 203.047 57.2368C202.808 57.0929 202.665 56.805 202.713 56.4212C202.713 56.0853 202.808 55.8455 203.047 55.6535C203.285 55.5096 203.571 55.4137 203.953 55.4137C204.43 55.4137 204.906 55.4616 205.336 55.5576C205.765 55.6535 206.194 55.7975 206.575 56.0374L207.434 53.4466C206.909 53.2067 206.385 53.0148 205.765 52.8709C205.192 52.7269 204.477 52.679 203.619 52.679C202.284 52.679 201.235 53.0148 200.519 53.6385C199.804 54.2622 199.422 55.2217 199.375 56.4692C199.375 57.6206 199.661 58.4842 200.185 59.0599C200.71 59.6357 201.425 60.0674 202.331 60.3073C203.094 60.4992 203.667 60.7391 204 60.931C204.334 61.1229 204.477 61.4588 204.477 61.8426C204.477 62.2264 204.334 62.5143 204.048 62.6582C203.762 62.8501 203.333 62.9461 202.761 62.9461C202.236 62.9461 201.711 62.8501 201.235 62.6582C200.758 62.4663 200.281 62.2744 199.852 61.9865L198.755 64.5773C199.232 64.8652 199.899 65.153 200.662 65.3929C201.425 65.7288 202.284 65.8247 203.285 65.8247Z" fill="#0068B4"/>
<path fill-rule="evenodd" clip-rule="evenodd" d="M214.825 65.8248C215.635 65.8248 216.351 65.6809 216.97 65.441C217.59 65.2011 218.115 64.8653 218.544 64.4335L217.113 62.1306C216.827 62.4185 216.494 62.6583 216.207 62.8023C215.921 62.9462 215.54 63.0422 215.063 63.0422C214.348 63.0901 213.871 62.8023 213.632 62.2745C213.346 61.7468 213.203 60.6913 213.251 59.156C213.251 58.1005 213.299 57.3329 213.442 56.8051C213.537 56.2774 213.728 55.8935 214.014 55.7496C214.252 55.5577 214.634 55.4618 215.015 55.5097C215.444 55.5097 215.778 55.6057 216.064 55.7496C216.351 55.8935 216.637 56.1334 216.923 56.4213L218.592 54.1664C218.067 53.6866 217.495 53.3028 216.875 53.0629C216.255 52.823 215.54 52.7271 214.729 52.7271C213.012 52.7271 211.725 53.2068 210.867 54.2623C210.008 55.2698 209.579 56.949 209.579 59.252C209.579 61.5069 210.008 63.1861 210.867 64.2896C211.677 65.2971 213.012 65.8728 214.825 65.8248Z" fill="#0068B4"/>
<path fill-rule="evenodd" clip-rule="evenodd" d="M220.595 65.5369H224.028V56.2293C224.314 55.9894 224.6 55.7975 224.839 55.7015C225.125 55.5576 225.459 55.5096 225.792 55.5096C226.174 55.5096 226.412 55.6056 226.651 55.7975C226.841 55.9894 226.937 56.3732 226.937 56.9969V65.5848H230.37V56.2293C230.37 54.9819 230.084 54.0703 229.56 53.5426C229.035 53.0148 228.224 52.7749 227.175 52.7749C226.46 52.7749 225.84 52.9189 225.315 53.1587C224.791 53.3986 224.362 53.6865 223.98 54.0223V47.6414H220.547V65.5369H220.595Z" fill="#0068B4"/>
<path fill-rule="evenodd" clip-rule="evenodd" d="M236.236 65.8247C236.904 65.8247 237.476 65.6808 237.953 65.4409C238.43 65.201 238.811 64.9131 239.145 64.5293C239.24 64.7692 239.288 65.0091 239.383 65.201C239.431 65.3929 239.479 65.4889 239.479 65.4889H242.197V56.709C242.197 55.2697 241.863 54.2142 241.148 53.5905C240.432 52.9668 239.288 52.679 237.762 52.679C236.761 52.679 235.902 52.8229 235.139 53.1107C234.376 53.3986 233.613 53.7345 232.946 54.2142L234.186 56.5651C234.662 56.2772 235.187 56.0374 235.712 55.7975C236.236 55.6056 236.808 55.4616 237.428 55.4616C238 55.4616 238.382 55.6056 238.573 55.8934C238.763 56.1813 238.859 56.6131 238.811 57.2368V57.7166H237.953C236.093 57.7166 234.758 58.0044 233.852 58.6761C232.993 59.2998 232.517 60.3553 232.517 61.7946C232.517 63.042 232.803 64.0016 233.375 64.7212C233.995 65.4889 234.949 65.8247 236.236 65.8247ZM237.19 63.4738C236.761 63.4738 236.427 63.3779 236.236 63.09C236.045 62.8501 235.95 62.3704 235.95 61.7946C235.902 61.1229 236.045 60.6432 236.427 60.3553C236.761 60.0674 237.476 59.9235 238.525 59.9235H238.716V62.8501C238.525 63.042 238.287 63.186 238.048 63.3299C237.81 63.4259 237.524 63.4738 237.19 63.4738Z" fill="#0068B4"/>
<path fill-rule="evenodd" clip-rule="evenodd" d="M244.056 55.6536H245.296V65.5369H248.73V55.6536H250.828V53.0628H248.73V51.2877C248.73 50.8559 248.825 50.568 248.968 50.3761C249.111 50.1842 249.397 50.0882 249.731 50.0882C249.97 50.0882 250.208 50.0882 250.399 50.1362C250.589 50.1842 250.78 50.2322 250.923 50.3281L251.734 47.9772C251.448 47.8333 251.066 47.6894 250.589 47.5454C250.113 47.4495 249.54 47.3535 248.873 47.3535C248.253 47.3535 247.633 47.4495 247.108 47.6414C246.584 47.8333 246.107 48.2171 245.773 48.8408C245.439 49.4165 245.249 50.3281 245.249 51.4796V52.9669H244.009V55.6536H244.056Z" fill="#0068B4"/>
<path fill-rule="evenodd" clip-rule="evenodd" d="M251.973 55.6535H253.212V62.7062C253.212 63.9056 253.546 64.7212 254.166 65.153C254.786 65.6328 255.644 65.8247 256.693 65.8247C257.266 65.8247 257.742 65.7767 258.124 65.6328C258.505 65.5369 258.839 65.3929 259.078 65.249L258.601 62.8981C258.505 62.9461 258.362 62.9941 258.172 63.042C257.981 63.09 257.79 63.138 257.504 63.138C257.218 63.138 256.98 63.042 256.836 62.8981C256.693 62.7062 256.598 62.3704 256.598 61.8426V55.6056H258.887V53.0148H256.598V49.4165L253.165 49.9922V53.0628H251.925V55.6535H251.973Z" fill="#0068B4"/>
<path fill-rule="evenodd" clip-rule="evenodd" d="M264.752 65.8247C266.326 65.8247 267.471 65.4409 268.186 64.7212C268.901 64.0016 269.283 62.9941 269.283 61.6987C269.283 60.4033 268.949 59.4917 268.281 58.964C267.661 58.3882 266.851 58.0044 265.849 57.7645C265.182 57.5726 264.705 57.4287 264.466 57.2368C264.228 57.0929 264.085 56.805 264.085 56.4212C264.085 56.0853 264.228 55.8455 264.419 55.6535C264.657 55.5096 264.943 55.4137 265.325 55.4137C265.802 55.4137 266.278 55.4616 266.66 55.5576C267.089 55.6535 267.518 55.7975 267.9 56.0374L268.758 53.4466C268.234 53.2067 267.709 53.0148 267.089 52.8709C266.517 52.7269 265.802 52.679 264.943 52.679C263.608 52.679 262.559 53.0148 261.844 53.6385C261.128 54.2622 260.747 55.2217 260.747 56.4692C260.747 57.6206 261.033 58.4842 261.558 59.0599C262.082 59.6357 262.797 60.0674 263.703 60.3073C264.466 60.4992 265.039 60.7391 265.372 60.931C265.706 61.1229 265.849 61.4588 265.849 61.8426C265.849 62.2264 265.706 62.5143 265.42 62.6582C265.134 62.8501 264.705 62.9461 264.133 62.9461C263.608 62.9461 263.083 62.8501 262.607 62.6582C262.13 62.4663 261.653 62.2744 261.224 61.9865L260.127 64.5773C260.604 64.8652 261.271 65.153 262.034 65.3929C262.845 65.7288 263.751 65.8247 264.752 65.8247Z" fill="#0068B4"/>
<path fill-rule="evenodd" clip-rule="evenodd" d="M270.665 55.6536H271.905V65.5369H275.338V55.6536H277.436V53.0628H275.338V51.2877C275.338 50.8559 275.433 50.568 275.577 50.3761C275.767 50.1842 276.006 50.0882 276.34 50.0882C276.578 50.0882 276.816 50.0882 277.007 50.1362C277.198 50.1842 277.389 50.2322 277.532 50.3281L278.342 47.9772C278.056 47.8333 277.675 47.6894 277.198 47.5454C276.721 47.4495 276.149 47.3535 275.481 47.3535C274.861 47.3535 274.241 47.4495 273.717 47.6414C273.192 47.8333 272.715 48.2171 272.382 48.8408C272.048 49.4165 271.857 50.3281 271.857 51.4796V52.9669H270.617V55.6536H270.665Z" fill="#0068B4"/>
<path fill-rule="evenodd" clip-rule="evenodd" d="M284.112 65.8246C285.829 65.8246 287.164 65.3448 288.118 64.3373C289.071 63.3298 289.501 61.6506 289.548 59.2997C289.548 56.9488 289.071 55.2696 288.118 54.2141C287.164 53.1586 285.877 52.6788 284.112 52.6788C282.395 52.6788 281.06 53.1586 280.154 54.1661C279.2 55.1736 278.771 56.8528 278.724 59.1557C278.724 61.5066 279.2 63.1858 280.154 64.2413C281.06 65.3448 282.395 65.8726 284.112 65.8246ZM284.16 63.3298C283.492 63.3777 283.015 63.0899 282.777 62.5142C282.539 61.9384 282.395 60.8829 282.443 59.3477C282.443 57.7164 282.539 56.6609 282.777 56.0852C283.015 55.5095 283.492 55.2696 284.16 55.3176C284.589 55.3176 284.97 55.4135 285.209 55.6054C285.447 55.7973 285.638 56.1812 285.733 56.7569C285.829 57.3326 285.877 58.1482 285.877 59.2517C285.877 60.835 285.781 61.8905 285.543 62.5142C285.257 63.0419 284.827 63.3298 284.16 63.3298ZM286.639 51.6713C287.116 51.6713 287.546 51.4794 287.927 51.1435C288.261 50.8077 288.452 50.3759 288.452 49.8482C288.452 49.3204 288.261 48.8886 287.879 48.5048C287.546 48.169 287.069 47.9771 286.544 47.9771C286.02 47.9771 285.59 48.169 285.257 48.5048C284.923 48.8406 284.732 49.3204 284.732 49.8482C284.732 50.3759 284.923 50.8077 285.257 51.1435C285.686 51.4794 286.163 51.6713 286.639 51.6713ZM281.585 51.6713C282.062 51.6713 282.491 51.4794 282.872 51.1435C283.206 50.8077 283.397 50.3759 283.445 49.8482C283.445 49.3204 283.254 48.8886 282.872 48.5048C282.539 48.169 282.062 47.9771 281.537 47.9771C281.06 47.9771 280.631 48.169 280.297 48.5048C279.963 48.8406 279.773 49.3204 279.773 49.8482C279.773 50.3759 279.963 50.8077 280.345 51.1435C280.679 51.4794 281.108 51.6713 281.585 51.6713Z" fill="#0068B4"/>
<path fill-rule="evenodd" clip-rule="evenodd" d="M291.933 65.5371H295.366V56.6133C295.604 56.4214 295.891 56.2775 296.177 56.1815C296.463 56.0856 296.797 56.0376 297.178 56.0376C297.417 56.0376 297.655 56.0856 297.846 56.1336C298.036 56.1815 298.227 56.2775 298.418 56.3734L299.038 52.9191C298.942 52.8711 298.799 52.8711 298.609 52.8231C298.418 52.7751 298.275 52.7751 298.084 52.7751C297.464 52.7751 296.94 52.9191 296.415 53.2069C295.891 53.4948 295.461 53.8786 295.08 54.4064L294.746 53.015H291.933V65.5371Z" fill="#0068B4"/>
<path fill-rule="evenodd" clip-rule="evenodd" d="M304.569 65.8247C305.189 65.8247 305.762 65.6808 306.238 65.4409C306.715 65.201 307.192 64.8172 307.621 64.3374L307.907 65.4889H310.721V47.6414H307.288V53.8784C307.001 53.5905 306.62 53.3027 306.143 53.0628C305.666 52.8229 305.094 52.679 304.474 52.679C303.568 52.679 302.757 52.8709 302.185 53.2547C301.565 53.6385 301.136 54.3582 300.802 55.3177C300.516 56.2773 300.373 57.6686 300.373 59.3958C300.373 61.7946 300.755 63.5218 301.517 64.4334C302.185 65.4409 303.234 65.8727 304.569 65.8247ZM305.523 63.09C304.903 63.138 304.522 62.8981 304.283 62.3704C304.045 61.8906 303.949 60.8831 303.997 59.3478C303.997 57.7646 304.093 56.757 304.331 56.1813C304.569 55.6536 304.999 55.4137 305.666 55.4616C306 55.4616 306.334 55.5576 306.62 55.6536C306.906 55.7975 307.097 55.9414 307.288 56.1333V62.3704C307.049 62.5623 306.811 62.7542 306.525 62.8501C306.238 63.042 305.905 63.09 305.523 63.09Z" fill="#0068B4"/>
<path fill-rule="evenodd" clip-rule="evenodd" d="M319.066 65.8247C319.972 65.8247 320.735 65.6807 321.45 65.3929C322.165 65.105 322.738 64.7692 323.167 64.3374L321.689 62.0345C321.307 62.3223 320.926 62.6102 320.496 62.8021C320.067 62.994 319.543 63.09 318.971 63.1379C318.208 63.1859 317.683 62.994 317.349 62.6102C317.015 62.2264 316.777 61.5067 316.729 60.3553H323.405V59.3477C323.405 57.0448 323.024 55.3656 322.213 54.3101C321.402 53.2546 320.067 52.6789 318.208 52.7269C316.586 52.6789 315.299 53.2067 314.393 54.2142C313.487 55.2217 313.01 56.9009 313.01 59.2518C313.01 61.6027 313.487 63.2819 314.44 64.3374C315.489 65.3449 317.015 65.8726 319.066 65.8247ZM318.351 55.2217C318.97 55.2217 319.4 55.4136 319.638 55.8934C319.829 56.3252 319.972 57.0448 319.972 58.0524H316.777C316.825 56.9489 316.968 56.1812 317.206 55.7974C317.445 55.3656 317.826 55.1737 318.351 55.2217Z" fill="#0068B4"/>
<path fill-rule="evenodd" clip-rule="evenodd" d="M325.79 65.5371H329.223V56.6133C329.462 56.4214 329.748 56.2775 330.034 56.1815C330.32 56.0856 330.654 56.0376 331.035 56.0376C331.274 56.0376 331.512 56.0856 331.703 56.1336C331.894 56.1815 332.085 56.2775 332.275 56.3734L332.895 52.9191C332.8 52.8711 332.657 52.8711 332.466 52.8231C332.275 52.7751 332.132 52.7751 331.942 52.7751C331.322 52.7751 330.797 52.9191 330.273 53.2069C329.748 53.4948 329.319 53.8786 328.937 54.4064L328.603 53.015H325.79V65.5371Z" fill="#0068B4"/>
<path fill-rule="evenodd" clip-rule="evenodd" d="M338.046 65.8248C338.856 65.8248 339.476 65.6809 339.953 65.393C340.43 65.1052 340.907 64.7213 341.336 64.2895L341.622 65.537H344.435V53.0629H340.954V62.3225C340.716 62.5624 340.43 62.7063 340.144 62.8502C339.858 62.9942 339.524 63.0421 339.19 63.0421C338.809 63.0421 338.522 62.9462 338.332 62.7543C338.141 62.5624 337.998 62.1306 337.998 61.5548V53.0149H334.564V62.2265C334.564 63.4739 334.898 64.3855 335.518 64.9612C336.186 65.5369 336.996 65.8728 338.046 65.8248Z" fill="#0068B4"/>
<path fill-rule="evenodd" clip-rule="evenodd" d="M347.344 65.5371H350.777V56.2295C351.063 55.9896 351.349 55.7977 351.588 55.7018C351.874 55.5578 352.208 55.5098 352.541 55.5098C352.875 55.5098 353.161 55.6058 353.4 55.7977C353.59 55.9896 353.686 56.3734 353.686 56.9971V65.5851H357.119V56.2295C357.119 54.9821 356.833 54.0705 356.309 53.5428C355.784 53.015 354.973 52.7751 353.924 52.7751C353.161 52.7751 352.494 52.9191 351.921 53.2069C351.349 53.4948 350.872 53.8306 350.395 54.3104L350.109 53.111H347.296V65.5371H347.344Z" fill="#0068B4"/>
<path fill-rule="evenodd" clip-rule="evenodd" d="M364.463 70.3347C366.514 70.3347 368.04 69.9509 368.994 69.2312C369.947 68.5116 370.424 67.4081 370.424 65.9688C370.424 64.6734 369.995 63.7618 369.184 63.2341C368.374 62.6583 367.372 62.4185 366.085 62.4185H363.796C363.51 62.4185 363.319 62.3705 363.176 62.2265C363.033 62.1306 362.985 61.9867 362.985 61.7947C362.985 61.6508 363.033 61.4589 363.081 61.315C363.128 61.171 363.224 61.0271 363.319 60.8832C363.7 60.9312 364.13 60.9791 364.654 60.9791C366.371 60.9791 367.611 60.6913 368.374 60.0676C369.137 59.4439 369.518 58.4843 369.518 57.141C369.518 56.4693 369.423 55.8935 369.137 55.3178L370.329 54.8381V53.0629H366.609C366.323 52.9669 365.989 52.871 365.656 52.823C365.322 52.775 364.94 52.7271 364.559 52.7271C362.89 52.7271 361.65 53.1109 360.887 53.7825C360.124 54.5022 359.695 55.5097 359.695 56.8531C359.695 57.6207 359.79 58.2444 360.076 58.8202C360.315 59.3959 360.696 59.8277 361.221 60.1635C360.792 60.4034 360.505 60.7392 360.219 61.1231C359.981 61.5549 359.838 62.0346 359.838 62.6583C359.838 63.0901 359.933 63.5219 360.124 63.8578C360.315 64.1936 360.553 64.5294 360.887 64.7214C360.41 64.9133 360.029 65.2491 359.742 65.6329C359.456 66.0167 359.266 66.4965 359.266 67.0722C359.266 68.1277 359.695 68.8954 360.553 69.4711C361.411 70.0468 362.699 70.3347 364.463 70.3347ZM362.556 65.2491H364.797C365.56 65.2491 366.132 65.2971 366.466 65.489C366.8 65.6809 366.943 65.9688 366.943 66.4965C366.943 66.9763 366.752 67.3601 366.323 67.648C365.894 67.9358 365.322 68.0798 364.511 68.0798C363.557 68.0798 362.937 67.9358 362.651 67.648C362.365 67.3601 362.222 67.0243 362.27 66.5445C362.27 66.3046 362.318 66.0647 362.365 65.8248C362.413 65.5849 362.508 65.393 362.556 65.2491ZM364.654 58.7242C364.034 58.7242 363.605 58.5803 363.367 58.2444C363.128 57.9566 363.033 57.4768 363.033 56.9011C363.033 56.3253 363.128 55.8456 363.367 55.5577C363.605 55.2698 364.034 55.1259 364.654 55.1259C365.322 55.1259 365.799 55.2698 365.989 55.6057C366.228 55.8935 366.323 56.3733 366.275 56.949C366.275 57.5248 366.18 58.0045 365.942 58.2924C365.703 58.5803 365.274 58.7242 364.654 58.7242Z" fill="#0068B4"/>
<path fill-rule="evenodd" clip-rule="evenodd" d="M45.6348 31.7608C45.6348 31.7608 61.3711 27.203 73.0542 31.7608C73.1019 31.7608 73.1019 31.7608 73.1019 31.7608C80.684 41.5002 80.684 57.3807 73.1019 67.12H73.0542C61.3711 62.0824 45.6348 67.12 45.6348 67.12C53.4076 57.3327 53.4076 41.5002 45.6348 31.7608Z" fill="#0068B4"/>
<path fill-rule="evenodd" clip-rule="evenodd" d="M76.9648 31.7608C76.9648 31.7608 92.7012 27.203 104.384 31.7608C104.432 31.7608 104.432 31.7608 104.432 31.7608C112.014 41.5002 112.014 57.3807 104.432 67.12H104.384C92.7012 62.0824 76.9648 67.12 76.9648 67.12C84.69 57.3327 84.69 41.5002 76.9648 31.7608Z" fill="#76B828"/>
<path fill-rule="evenodd" clip-rule="evenodd" d="M108.247 31.7608C108.247 31.7608 123.983 27.203 135.667 31.7608C135.714 31.7608 135.714 31.7608 135.714 31.7608C143.296 41.5002 143.296 57.3807 135.714 67.12H135.667C123.983 62.0824 108.247 67.12 108.247 67.12C115.972 57.3327 115.972 41.5002 108.247 31.7608Z" fill="#0068B4"/>
<path d="M142.723 71.4381V78.1549C140.816 78.5867 138.813 78.9225 136.524 78.9225C130.611 78.9225 127.416 76.7156 121.503 76.7156C115.59 76.7156 112.443 78.9225 106.53 78.9225C100.617 78.9225 97.4695 76.7156 91.5564 76.7156C85.6434 76.7156 82.4961 78.9225 76.5354 78.9225C70.6223 78.9225 67.4273 76.7156 61.5143 76.7156C55.6012 76.7156 52.4063 78.9225 46.4932 78.9225C45.7302 78.9225 44.9672 78.8746 44.252 78.8266V72.1098C44.9672 72.1578 45.7302 72.2057 46.4932 72.2057C52.4063 72.2057 55.6012 69.9988 61.5143 69.9988C67.4273 69.9988 70.6223 72.2057 76.5354 72.2057C82.4484 72.2057 85.6434 69.9988 91.5564 69.9988C97.4695 69.9988 100.617 72.2057 106.53 72.2057C112.443 72.2057 115.59 69.9988 121.503 69.9988C127.416 69.9988 130.611 72.2057 136.524 72.2057C138.813 72.2057 140.864 71.8699 142.723 71.4381Z" fill="#0068B4"/>
<path d="M44.2998 82.3766C45.0151 82.4246 45.7781 82.4726 46.541 82.4726C52.4541 82.4726 55.6491 80.2656 61.5621 80.2656C67.4752 80.2656 70.6702 82.4726 76.5832 82.4726C82.4963 82.4726 85.6912 80.2656 91.6043 80.2656C97.5174 80.2656 100.665 82.4726 106.578 82.4726C112.491 82.4726 115.638 80.2656 121.551 80.2656C127.464 80.2656 130.659 82.4726 136.572 82.4726C138.909 82.4726 140.912 82.1367 142.771 81.7049V88.4218C140.864 88.8535 138.861 89.1894 136.572 89.1894C130.659 89.1894 127.464 86.9824 121.551 86.9824C115.638 86.9824 112.491 89.1894 106.578 89.1894C100.665 89.1894 97.5174 86.9824 91.6043 86.9824C85.6912 86.9824 82.544 89.1894 76.5832 89.1894C70.6702 89.1894 67.4752 86.9824 61.5621 86.9824C55.6491 86.9824 52.4541 89.1894 46.541 89.1894C45.7781 89.1894 45.0151 89.1414 44.2998 89.0934V82.3766Z" fill="#0068B4"/>
</svg>
