<svg xmlns="http://www.w3.org/2000/svg" version="1.1" xmlns:xlink="http://www.w3.org/1999/xlink" width="1000" height="1000"><metadata><rdf:RDF xmlns:rdf="http://www.w3.org/1999/02/22-rdf-syntax-ns#" xmlns:dc="http://purl.org/dc/elements/1.1/"><rdf:Description><dc:creator>RealFaviconGenerator</dc:creator><dc:source>https://realfavicongenerator.net</dc:source></rdf:Description></rdf:RDF></metadata><g clip-path="url(#SvgjsClipPath1125)"><rect width="1000" height="1000" fill="#ffffff"></rect><g transform="matrix(1.6778523489932886,0,0,1.6778523489932886,0.604026845637577,0)"><svg xmlns="http://www.w3.org/2000/svg" version="1.1" id="Layer_1" viewBox="0 0 595.28 596" width="595.28" height="596"><defs>
    <style>
      .st0 {
        fill: #fff;
      }

      .st1 {
        fill: #10294b;
      }
    </style>
  <clipPath id="SvgjsClipPath1125"><rect width="1000" height="1000" x="0" y="0" rx="500" ry="500"></rect></clipPath></defs><rect class="st1" width="595.28" height="596"></rect><path class="st0" d="M180.48,309.63c-7.81.63-15.29,1.12-22.75,1.85-14.65,1.42-29.31,2.79-43.93,4.49-15.65,1.82-31.27,4.07-46.92,5.99-12.29,1.51-24.63,2.72-36.92,4.22-3.2.38-6.36,1.2-9.49,2.01-3.43.88-5.23-.48-7.88-6.82,4.67-1.22,9.17-2.84,13.81-3.57,36.32-5.67,72.67-11.28,109.04-16.65,13.79-2.03,27.68-3.36,41.54-5.02,1.53-.19,3.04-.45,4.88-.72v-129.91c0-7.33,1.35-8.74,8.63-8.7,36.92.24,73.85.48,110.78.78,38.63.32,77.25.7,115.88,1.05,4.85.05,7.65,3.01,7.6,8.32-.32,29.7-.7,59.4-1.02,89.1-.09,8.46-.04,16.93,0,25.39.02,2.92-.67,5.3-3.39,6.98-.99.62-1.4,2.17-2.53,4.03,8.17.52,15.2.66,22.17,1.48,31.61,3.7,63.21,7.42,94.77,11.5,13.31,1.72,26.54,4.15,39.72,6.7,2.83.55,5.27,3.07,8.2,4.87-4.46,4.26-8.77,4.16-13.26,3.48-16.48-2.5-32.93-5.23-49.46-7.37-10.44-1.35-20.99-1.88-31.5-2.7-19.73-1.53-39.47-3-59.21-4.5-2.04-.16-4.08-.23-6.56-.36,0,10.17.03,19.92,0,29.66-.06,16.03-.13,32.04-.27,48.07-.13,16.02-.35,32.05-.51,48.07-.06,6.57-1.26,7.82-7.73,7.82-22.32,0-44.65.12-66.98-.04-11.86-.09-23.71-.87-35.57-.95-16.83-.12-33.66.3-50.49.17-24.67-.19-49.32-.64-73.98-1.02-5.45-.08-7.12-1.36-7.15-6.97-.06-13.15.37-26.3.46-39.44.17-26.05.24-52.11.35-78.17,0-.77-.15-1.54-.32-3.12h-.02ZM417.32,292.53c.3-.34.61-.68.91-1.02-.58-.87-1-2.33-1.75-2.52-4.71-1.17-5.55-4.63-5.55-8.68,0-6.39-.04-12.77.02-19.16.02-1.8-.34-2.82-2.44-3.15-5.67-.87-11.29-2.04-16.93-3.07-24.48-4.45-49.07-8.4-73.43-13.45-26.33-5.47-51.9-13.79-76.4-24.9-16.37-7.43-32.6-15.4-45.27-28.78-.19-.19-.65-.11-1.49-.23v106.57c74.13-6.29,148.2-8.94,222.35-1.61h0ZM409.38,426.88v-81.87c-4.64.37-9.36.44-13.98,1.16-18.42,2.87-36.84,5.72-55.19,8.98-34.8,6.17-68.48,16.05-100.5,31.19-16.05,7.6-30.96,16.8-42.14,31-1.63,2.06-2.82,4.46-4.7,7.49,72.72.69,144.31,1.36,216.52,2.04h0ZM194.06,401.2c6.46-4.95,11.04-11.78,18.34-15.4,12.23-6.08,24.05-13.22,36.75-18.11,46.72-18.02,95.72-25.81,145.29-30.6,5.13-.5,10.27-.91,15.29-1.36v-30.23c-71.9-2.49-143.49-2.02-215.67,3.96v91.74ZM198.74,169.25c-.17.41-.35.81-.51,1.21,4.45,6.4,10.14,11.49,16.67,15.88,26.66,17.9,55.88,30.08,86.62,38.92,26.3,7.56,52.79,14.33,79.84,18.75,9.72,1.59,19.42,3.32,29.4,5.04.5-26.22.98-51.8,1.48-78.03-71.59-.59-142.54-1.17-213.49-1.77h0Z"></path></svg></g></g></svg>