<svg width="28" height="28" viewBox="0 0 28 28" fill="none" xmlns="http://www.w3.org/2000/svg">
<path d="M2.06479 11.2403C2.4092 9.6509 3.06662 8.14603 3.99872 6.81341C4.93081 5.4808 6.11892 4.34711 7.49374 3.47847C8.86856 2.60984 10.4026 2.02364 12.0063 1.75407C13.6101 1.4845 15.2514 1.53695 16.8347 1.90837C18.418 2.27978 19.9114 2.96273 21.228 3.91738C22.5445 4.87202 23.6578 6.07926 24.5029 7.46867C25.348 8.85808 25.908 10.4019 26.1503 12.01C26.3925 13.6181 26.3121 15.2583 25.9138 16.835C25.7145 17.632 25.2947 18.3567 24.7025 18.9261C24.1104 19.4955 23.3698 19.8866 22.5657 20.0547C21.7616 20.2227 20.9264 20.1608 20.1558 19.8761C19.3851 19.5914 18.7103 19.0955 18.2085 18.445C17.1407 19.4547 15.7454 20.0468 14.2773 20.1132C12.8092 20.1796 11.3661 19.716 10.2114 18.8069C9.05676 17.8977 8.26745 16.6038 7.98754 15.161C7.70764 13.7183 7.9558 12.2231 8.68673 10.9481C9.41767 9.67315 10.5826 8.7035 11.9691 8.21611C13.3555 7.72872 14.871 7.75607 16.239 8.29318C17.6069 8.83028 18.7361 9.84134 19.4206 11.1418C20.105 12.4423 20.2991 13.9456 19.9673 15.3773C19.8624 15.8296 19.9415 16.305 20.1871 16.699C20.4328 17.093 20.8249 17.3732 21.2772 17.4781C21.7295 17.583 22.2049 17.5039 22.5989 17.2583C22.9929 17.0127 23.2731 16.6206 23.378 16.1683L23.476 15.6835C23.855 13.5489 23.5023 11.3489 22.4749 9.43974C21.4475 7.53064 19.8057 6.0243 17.8154 5.16473C15.8251 4.30516 13.6029 4.14271 11.5087 4.7037C9.41454 5.26469 7.57111 6.51625 6.27702 8.25566C4.98293 9.99506 4.31398 12.1204 4.37852 14.2875C4.44307 16.4545 5.23734 18.5363 6.63266 20.1956C8.02799 21.8549 9.94264 22.9945 12.0665 23.4298C14.1903 23.8652 16.3989 23.5708 18.3345 22.5943C18.6453 22.4372 19.0057 22.4099 19.3365 22.5185C19.6673 22.6272 19.9414 22.8628 20.0985 23.1735C20.2556 23.4842 20.2829 23.8447 20.1743 24.1755C20.0656 24.5063 19.83 24.7804 19.5193 24.9375C17.4407 25.9867 15.1061 26.4217 12.7891 26.1916C10.4721 25.9616 8.26872 25.076 6.437 23.6385C4.60529 22.2011 3.22117 20.2714 2.44682 18.0756C1.67246 15.8798 1.53994 13.5087 2.06479 11.2403ZM14.7873 10.591C14.3368 10.48 13.8688 10.4597 13.4105 10.5313C12.9521 10.6028 12.5125 10.7648 12.1173 11.0077C11.7221 11.2506 11.3791 11.5697 11.1083 11.9464C10.8375 12.3231 10.6443 12.7498 10.5399 13.2018C10.4355 13.6538 10.422 14.1221 10.5002 14.5794C10.5784 15.0367 10.7467 15.4738 10.9954 15.8655C11.2441 16.2571 11.5681 16.5954 11.9487 16.8607C12.3293 17.126 12.7588 17.313 13.2123 17.4108C14.1111 17.6046 15.05 17.437 15.8262 16.9441C16.6024 16.4513 17.1535 15.6729 17.3604 14.777C17.5673 13.8811 17.4133 12.9399 16.9319 12.1566C16.4504 11.3733 15.68 10.8109 14.7873 10.591Z" fill="#12294B"/>
</svg>
