<svg width="149" height="41" viewBox="0 0 149 41" fill="none" xmlns="http://www.w3.org/2000/svg">
<path d="M95.5282 21.7292C94.4901 21.8188 93.4956 21.8887 92.504 21.9916C90.5562 22.1933 88.6074 22.3886 86.6633 22.6302C84.5822 22.8884 82.5065 23.2088 80.4259 23.4816C78.7916 23.6961 77.1516 23.8688 75.5169 24.081C75.092 24.1356 74.6716 24.2521 74.2554 24.3664C73.7998 24.4916 73.5595 24.2985 73.2081 23.3964C73.8283 23.2225 74.4271 22.9922 75.0438 22.8895C79.8731 22.084 84.7048 21.2851 89.5412 20.5229C91.3749 20.2342 93.2218 20.0455 95.0638 19.8093C95.2669 19.783 95.4683 19.7453 95.7127 19.7066C95.7127 19.4648 95.7127 19.2466 95.7127 19.0268C95.7127 13.0973 95.7127 7.16667 95.7127 1.23701C95.7127 0.195405 95.8922 -0.00589004 96.8603 0.000129199C101.769 0.0340049 106.679 0.0685806 111.588 0.111695C116.724 0.156489 121.859 0.211223 126.995 0.260496C127.64 0.266936 128.012 0.688002 128.005 1.44265C127.963 5.66563 127.912 9.88806 127.87 14.1105C127.858 15.3135 127.865 16.5169 127.87 17.7199C127.872 18.1344 127.781 18.4729 127.42 18.7118C127.288 18.7993 127.233 19.0197 127.083 19.2855C128.169 19.3598 129.105 19.3796 130.03 19.4966C134.233 20.0225 138.434 20.5514 142.63 21.1309C144.399 21.3753 146.158 21.7209 147.91 22.084C148.286 22.1617 148.611 22.5198 149 22.7762C148.407 23.3821 147.834 23.3674 147.237 23.2707C145.046 22.9147 142.859 22.5275 140.661 22.2229C139.273 22.0304 137.87 21.9561 136.473 21.8396C133.85 21.6225 131.225 21.4125 128.601 21.2003C128.33 21.1779 128.058 21.1676 127.729 21.1489C127.729 22.5952 127.733 23.9815 127.729 25.3659C127.722 27.6445 127.711 29.9214 127.694 32.2C127.676 34.4779 127.647 36.7559 127.626 39.0334C127.617 39.9668 127.458 40.145 126.598 40.145C123.63 40.145 120.661 40.1619 117.693 40.1389C116.116 40.1265 114.541 40.0159 112.965 40.0034C110.727 39.9865 108.49 40.0466 106.252 40.0275C102.973 40.0001 99.6948 39.9361 96.4165 39.8825C95.6914 39.871 95.4704 39.6885 95.4664 38.8917C95.4577 37.0227 95.5155 35.1532 95.5272 33.2843C95.5497 29.5802 95.5594 25.8761 95.5733 22.1715C95.5733 22.0622 95.5539 21.9527 95.5314 21.7286L95.5282 21.7292ZM127.016 19.2981C127.057 19.2494 127.097 19.2012 127.137 19.1531C127.06 19.029 127.003 18.8212 126.904 18.795C126.278 18.6281 126.167 18.1367 126.166 17.5604C126.165 16.652 126.16 15.7444 126.169 14.8362C126.171 14.5797 126.124 14.4347 125.844 14.3888C125.091 14.2648 124.343 14.099 123.593 13.953C120.338 13.3208 117.069 12.7594 113.831 12.0403C110.33 11.2621 106.93 10.08 103.673 8.50028C101.497 7.44383 99.3383 6.31081 97.6539 4.40845C97.6293 4.38116 97.5675 4.39264 97.4555 4.37626V19.5277C107.312 18.6332 117.159 18.2563 127.017 19.2981H127.016ZM125.961 38.398V26.7592C125.344 26.8116 124.716 26.8221 124.101 26.9243C121.653 27.3317 119.203 27.738 116.764 28.2006C112.137 29.0782 107.659 30.4818 103.402 32.6352C101.267 33.7157 99.2856 35.0236 97.799 37.043C97.5827 37.3355 97.4247 37.6768 97.1746 38.1082C106.843 38.2061 116.361 38.3017 125.961 38.398ZM97.3337 34.7475C98.1929 34.0433 98.8013 33.0732 99.7724 32.5575C101.399 31.6935 102.97 30.6787 104.658 29.9825C110.87 27.4207 117.384 26.3129 123.975 25.6326C124.657 25.5622 125.341 25.5025 126.008 25.4397V21.1422C116.448 20.7885 106.931 20.8547 97.3337 21.705V34.7475ZM97.955 1.77133C97.9325 1.82928 97.9089 1.88611 97.8866 1.9435C98.4783 2.85395 99.2345 3.57738 100.102 4.20072C103.646 6.7456 107.532 8.47788 111.618 9.7338C115.115 10.8089 118.637 11.7712 122.233 12.4C123.525 12.626 124.815 12.8725 126.142 13.1163C126.208 9.3893 126.273 5.75144 126.339 2.02231C116.82 1.9386 107.388 1.85546 97.955 1.77133Z" fill="white"/>
<path d="M0 0.925802C2.37642 0.925802 4.69706 0.887275 7.01513 0.941462C8.30796 0.971258 9.51395 2.33703 9.7 3.83501C9.89989 5.44386 9.35436 6.70901 7.93329 7.59028C8.99814 8.01048 9.75197 8.70119 10.1135 9.77205C10.8567 11.9727 9.68195 14.2209 7.33688 14.4694C4.92287 14.7261 2.46164 14.5263 0 14.5263V0.925802ZM1.7302 13.0661C3.38726 13.0661 4.98706 13.117 6.58264 13.0493C7.74819 13.0007 8.6213 11.8611 8.56037 10.6522C8.49415 9.34049 7.59878 8.4218 6.36891 8.40836C5.91947 8.40295 5.47043 8.40836 5.02044 8.40836C3.92953 8.40836 2.8397 8.40836 1.72912 8.40836V13.0661H1.7302ZM1.74445 2.46425V6.97316C3.2346 6.97316 4.68756 7.00725 6.1389 6.96124C7.18842 6.92936 8.02814 5.89814 8.04931 4.73901C8.07103 3.59082 7.32575 2.52218 6.34137 2.48046C4.82109 2.41713 3.29661 2.46425 1.74445 2.46425Z" fill="white"/>
<path d="M52.5376 14.5447C51.8004 14.6711 51.2126 14.6382 50.6599 13.8405C48.5105 10.7389 46.2743 7.71011 44.0697 4.65477C43.9999 4.5587 43.9246 4.46857 43.7819 4.28595V14.5469H42.2023V0.968244C42.8846 0.844521 43.4233 0.873828 43.9358 1.6163C46.0813 4.72127 48.3048 7.76139 50.4998 10.8236C50.6313 11.0072 50.7653 11.1876 50.9788 11.4792V0.947232H52.5366V14.5436L52.5376 14.5447Z" fill="white"/>
<path d="M54.2601 23.7386C54.5926 23.7386 54.8741 23.7018 55.146 23.7519C55.3321 23.786 55.5598 23.8845 55.6707 24.048C57.9662 27.4423 60.2472 30.8494 62.5325 34.2536C62.6721 34.4615 62.8155 34.666 63.0302 34.9782V23.7761H64.5954V38.2672C63.8927 38.3766 63.3093 38.421 62.7612 37.5771C60.6344 34.3002 58.4247 31.0982 56.245 27.8704C56.1379 27.7108 56.0207 27.5604 55.8306 27.2984V38.2804H54.2601V23.7375V23.7386Z" fill="white"/>
<path d="M10.3353 38.3178C9.66926 38.3178 9.09561 38.3454 8.52674 38.2988C8.37947 38.2868 8.21348 38.0681 8.11525 37.9034C7.2513 36.4623 6.38843 35.0218 5.55644 33.5593C5.34783 33.1916 5.11722 33.0724 4.72978 33.0835C3.75215 33.1122 2.77453 33.0932 1.73762 33.0932V38.2759H0V23.7483H0.561354C2.2461 23.7483 3.93467 23.8219 5.61518 23.7304C8.11525 23.5946 10.3129 26.333 9.80751 29.2906C9.52089 30.9695 8.65215 32.1527 7.07889 32.7605C7.63232 33.7055 8.15911 34.6063 8.68685 35.5064C9.21569 36.4094 9.74508 37.3124 10.3353 38.319V38.3178ZM1.72846 31.4138C2.97249 31.4138 4.16514 31.4138 5.35903 31.4138C6.93161 31.4138 7.80582 30.6213 8.08438 28.9581C8.36185 27.3085 7.24009 25.2246 5.35151 25.3955C4.66953 25.4577 3.97675 25.4058 3.28889 25.4058C2.7718 25.4058 2.25416 25.4058 1.72751 25.4058V31.4138H1.72846Z" fill="white"/>
<path d="M50.8146 31.0911C50.7531 33.4675 49.964 35.4676 48.285 36.9495C45.8482 39.0982 42.4823 38.6862 40.3868 36.0283C38.0782 33.0991 38.2439 28.3253 40.7482 25.6084C43.6776 22.4324 48.2123 23.3944 50.0771 27.591C50.5657 28.6903 50.8273 29.8544 50.8146 31.0922V31.0911ZM44.6978 25.4387C43.6801 25.3951 42.7548 25.8678 41.9723 26.7231C40.0232 28.8549 39.8768 32.6474 41.6497 34.9761C43.2924 37.1334 46.0134 37.2127 47.7509 35.1554C49.5415 33.0339 49.6258 29.3658 47.9206 27.117C47.1047 26.0404 46.083 25.4149 44.6978 25.4387Z" fill="white"/>
<path d="M28.6663 31.0613H32.7283V38.1878H31.3654V36.405C31.2229 36.5303 31.1441 36.5881 31.0784 36.6592C28.7699 39.144 25.4316 38.7468 23.2993 36.157C20.4714 32.7194 21.1241 26.9296 24.6329 24.6223C27.3094 22.8627 30.7991 23.778 32.255 26.6215C32.2964 26.7033 32.3308 26.7894 32.3859 26.9114C31.9736 27.2338 31.574 27.5476 31.1502 27.8789C31.0648 27.7428 31.0068 27.6542 30.9522 27.5618C29.4266 24.9208 26.3141 24.6627 24.4516 27.0233C22.6633 29.2896 22.7992 33.2323 24.7381 35.333C26.2793 37.0036 28.4956 37.0632 30.2828 35.6218C31.3084 34.7951 31.5604 33.7827 31.2957 32.4435H28.6663V31.0601V31.0613Z" fill="white"/>
<path d="M55.1214 0.912521H63.5676V2.45302H56.7527V6.86775H62.6856V8.34312H56.7577V13.035H63.7341V14.6004H55.1214V0.912521Z" fill="white"/>
<path d="M20.6705 36.6573V38.3259H12.0578V23.7256H20.4796V25.3386H13.7104V30.071H19.5767V31.6509H13.6938V36.6561H20.6705V36.6573Z" fill="white"/>
<path d="M75.1995 2.44981C74.9195 2.93761 74.6705 3.37086 74.412 3.82094C73.0547 2.69642 71.522 2.23508 69.812 2.54264C69.3241 2.63019 68.7924 2.82944 68.4193 3.14501C67.3582 4.04204 67.5977 5.69833 68.8661 6.24179C69.6141 6.56252 70.4314 6.7163 71.2147 6.95749C72.1162 7.23532 73.0416 7.45806 73.9047 7.82968C75.1732 8.37531 75.8063 9.39857 75.7917 10.8093C75.7764 12.2292 75.2053 13.35 73.9136 13.9438C71.7926 14.9167 69.6329 14.7343 67.5198 13.8813C66.8187 13.5987 66.1803 13.1559 65.4566 12.7557C65.7587 12.2069 66.0134 11.7446 66.2993 11.2245C67.2077 12.0464 68.2346 12.549 69.3757 12.8166C70.4357 13.0653 71.4957 13.1141 72.5483 12.787C73.35 12.5388 73.8805 12.042 73.9495 11.1514C74.0179 10.2638 73.6027 9.6308 72.8227 9.32432C71.8636 8.9474 70.861 8.68382 69.8767 8.37205C69.2651 8.17905 68.6336 8.03327 68.0435 7.78679C65.8335 6.86587 65.2787 4.15076 66.9087 2.36457C67.7161 1.47962 68.754 1.10582 69.8988 0.970635C71.8473 0.740575 73.6116 1.18536 75.1985 2.45198L75.1995 2.44981Z" fill="white"/>
<path d="M24.9778 12.7129C25.2673 12.1998 25.5203 11.7501 25.804 11.2475C26.6147 11.9847 27.5346 12.4651 28.5552 12.7547C29.6237 13.0577 30.7039 13.1339 31.7909 12.8919C33.075 12.6054 33.7151 11.6411 33.4018 10.4971C33.2485 9.93306 32.8595 9.5464 32.3487 9.35266C31.4831 9.02267 30.5916 8.76263 29.706 8.4851C29.075 8.28757 28.4265 8.14142 27.8051 7.91853C26.5004 7.45187 25.563 6.65861 25.5082 5.13866C25.4529 3.60908 26.0001 2.36462 27.3659 1.63956C29.1641 0.685776 31.0539 0.724416 32.9222 1.44148C33.5458 1.68037 34.1103 2.07069 34.7493 2.41655C34.4414 2.9514 34.1863 3.3946 33.9201 3.85746C32.5357 2.70614 30.9848 2.29684 29.2495 2.56324C28.0375 2.74912 27.3 3.50483 27.2715 4.60273C27.2504 5.42568 27.5905 6.005 28.473 6.31438C29.4819 6.66702 30.5346 6.89153 31.5631 7.19346C32.1441 7.36456 32.7361 7.5282 33.2838 7.78132C34.7878 8.47778 35.4103 9.5163 35.2997 11.1124C35.1927 12.6573 34.3677 13.7319 32.9232 14.1815C30.0639 15.0712 27.4265 14.5263 24.9769 12.7118L24.9778 12.7129Z" fill="white"/>
<path d="M85.516 2.49249C85.257 2.94178 85.0075 3.37407 84.7353 3.84824C83.7903 3.0145 82.7103 2.55842 81.5022 2.49833C80.8665 2.46707 80.2055 2.52498 79.5864 2.66989C78.625 2.89501 78.0954 3.62516 78.0567 4.58164C78.0234 5.42544 78.3893 6.00468 79.3597 6.3425C80.339 6.6829 81.3639 6.89266 82.3618 7.18521C82.9625 7.36207 83.5658 7.55048 84.1384 7.79912C85.5012 8.39169 86.1692 9.43464 86.1251 10.9454C86.0827 12.4115 85.3899 13.43 84.0965 14.0572C81.7644 15.1877 77.516 14.4736 75.7919 12.6542C76.0403 12.2119 76.2935 11.761 76.5699 11.2666C76.6981 11.3638 76.8041 11.444 76.9095 11.5247C78.6028 12.8135 80.4963 13.301 82.5896 12.8959C83.7163 12.6775 84.3195 11.9379 84.2835 10.9273C84.257 10.2046 83.89 9.66302 83.2554 9.40378C82.3624 9.03905 81.4291 8.77505 80.5085 8.48033C79.8428 8.26744 79.159 8.10594 78.5022 7.86967C77.2898 7.43425 76.4041 6.69078 76.2982 5.29629C76.1796 3.7282 76.705 2.4585 78.0912 1.64394C80.2109 0.398164 83.6256 0.784783 85.5133 2.49154L85.516 2.49249Z" fill="white"/>
<path d="M21.5679 0.913623H23.2143C23.2293 0.996932 23.251 1.06523 23.251 1.13257C23.2485 3.52018 23.2722 5.91013 23.2206 8.29678C23.2035 9.08746 23.0663 9.89866 22.851 10.6597C22.0131 13.6203 19.7782 14.9764 16.5812 14.5106C14.13 14.1534 12.5815 12.3542 12.1959 9.56184C12.1115 8.95031 12.0716 8.32845 12.067 7.71099C12.051 5.65084 12.0608 3.59013 12.0608 1.52998C12.0608 1.33471 12.0608 1.13945 12.0608 0.918443H13.7481C13.7481 1.12279 13.7481 1.31599 13.7481 1.5096C13.7481 3.62456 13.7444 5.73965 13.7501 7.85351C13.7533 8.95678 13.8883 10.0358 14.3873 11.0325C15.028 12.3122 16.0559 12.9577 17.4363 13.0153C18.9077 13.0765 20.0825 12.5333 20.8367 11.1761C21.4634 10.046 21.5581 8.79112 21.5649 7.52702C21.5777 5.34101 21.569 3.15554 21.569 0.912521L21.5679 0.913623Z" fill="white"/>
<path d="M37.0347 23.7256H35.3121V38.3259H37.0347V23.7256Z" fill="white"/>
<path d="M38.7572 0.912521H36.1734V14.6004H38.7572V0.912521Z" fill="white"/>
</svg>
