<?xml version="1.0" encoding="utf-8"?>
<!-- Generator: Adobe Illustrator 16.0.0, SVG Export Plug-In . SVG Version: 6.00 Build 0)  -->
<!DOCTYPE svg PUBLIC "-//W3C//DTD SVG 1.1//EN" "http://www.w3.org/Graphics/SVG/1.1/DTD/svg11.dtd">
<svg version="1.1" id="Layer_1" xmlns="http://www.w3.org/2000/svg" xmlns:xlink="http://www.w3.org/1999/xlink" x="0px" y="0px"
	 width="1146.855px" height="286.829px" viewBox="0 0 1146.855 286.829" enable-background="new 0 0 1146.855 286.829"
	 xml:space="preserve">
<g>
	<path d="M738.383,155.228c-7.93,0.64-15.527,1.14-23.102,1.875c-14.879,1.441-29.766,2.836-44.617,4.562
		c-15.898,1.844-31.754,4.133-47.648,6.082c-12.484,1.532-25.012,2.766-37.5,4.282c-3.246,0.39-6.457,1.222-9.637,2.039
		c-3.48,0.894-5.316-0.485-8-6.93c4.738-1.242,9.312-2.887,14.023-3.621c36.891-5.754,73.801-11.461,110.746-16.906
		c14.008-2.063,28.117-3.411,42.188-5.098c1.551-0.188,3.09-0.457,4.957-0.734c0-1.727,0-3.286,0-4.856c0-42.359,0-84.726,0-127.086
		c0-7.441,1.371-8.879,8.766-8.836c37.5,0.242,75.008,0.489,112.508,0.797c39.234,0.32,78.457,0.711,117.691,1.063
		c4.926,0.046,7.77,3.054,7.719,8.445c-0.324,30.168-0.715,60.332-1.031,90.496c-0.09,8.594-0.043,17.191,0,25.785
		c0.016,2.961-0.68,5.379-3.441,7.086c-1.004,0.625-1.426,2.199-2.57,4.098c8.293,0.531,15.441,0.672,22.512,1.508
		c32.102,3.757,64.195,7.535,96.25,11.675c13.516,1.746,26.953,4.215,40.336,6.809c2.871,0.555,5.352,3.113,8.324,4.945
		c-4.531,4.328-8.91,4.223-13.465,3.532c-16.738-2.543-33.449-5.309-50.234-7.485c-10.605-1.375-21.32-1.906-31.992-2.738
		c-20.043-1.551-40.09-3.051-60.137-4.567c-2.07-0.16-4.148-0.234-6.66-0.367c0,10.332,0.031,20.235,0,30.125
		c-0.059,16.278-0.137,32.543-0.27,48.821c-0.137,16.273-0.359,32.546-0.52,48.816c-0.066,6.668-1.281,7.941-7.852,7.941
		c-22.672,0-45.352,0.121-68.023-0.043c-12.047-0.089-24.082-0.879-36.121-0.968c-17.094-0.121-34.184,0.308-51.277,0.172
		c-25.051-0.196-50.094-0.653-75.137-1.036c-5.539-0.082-7.227-1.386-7.258-7.078c-0.066-13.352,0.375-26.707,0.465-40.058
		c0.172-26.461,0.246-52.922,0.352-79.387c0-0.781-0.148-1.563-0.32-3.164L738.383,155.228z M978.922,137.861
		c0.309-0.348,0.617-0.692,0.922-1.036c-0.586-0.886-1.02-2.371-1.777-2.558c-4.785-1.192-5.633-4.703-5.641-8.82
		c-0.008-6.489-0.043-12.973,0.023-19.461c0.016-1.832-0.344-2.868-2.48-3.196c-5.754-0.886-11.469-2.07-17.199-3.113
		c-24.863-4.516-49.836-8.527-74.574-13.664c-26.742-5.559-52.715-14.004-77.594-25.289c-16.621-7.547-33.113-15.641-45.98-29.231
		c-0.188-0.195-0.66-0.113-1.516-0.23v108.238c75.293-6.39,150.516-9.082,225.824-1.64H978.922z M970.859,274.306v-83.145
		c-4.711,0.375-9.508,0.45-14.203,1.18c-18.707,2.91-37.418,5.813-56.055,9.117c-35.344,6.27-69.551,16.297-102.07,31.68
		c-16.305,7.719-31.445,17.062-42.801,31.488c-1.652,2.09-2.859,4.528-4.77,7.61C824.82,272.935,897.523,273.618,970.859,274.306
		L970.859,274.306z M752.176,248.228c6.563-5.031,11.211-11.961,18.629-15.645c12.426-6.172,24.426-13.422,37.32-18.395
		c47.453-18.301,97.215-26.215,147.563-31.075c5.211-0.503,10.434-0.929,15.531-1.378v-30.7
		c-73.027-2.527-145.73-2.054-219.043,4.02V248.228z M756.922,12.654c-0.172,0.414-0.352,0.82-0.523,1.23
		c4.52,6.504,10.297,11.672,16.926,16.125c27.074,18.18,56.754,30.555,87.969,39.527c26.715,7.68,53.617,14.555,81.09,19.047
		c9.871,1.614,19.719,3.375,29.863,5.117c0.504-26.625,1-52.613,1.5-79.253C901.035,13.849,828.98,13.255,756.922,12.654
		L756.922,12.654z M756.922,12.654"/>
	<path d="M0,6.775c17.512,0,34.613-0.278,51.695,0.113c9.527,0.215,18.414,10.07,19.785,20.879
		c1.473,11.609-2.547,20.738-13.019,27.097c7.847,3.032,13.402,8.016,16.066,15.743c5.477,15.879-3.18,32.102-20.461,33.895
		c-17.789,1.852-35.926,0.41-54.066,0.41V6.775z M12.75,94.376c12.211,0,24,0.367,35.758-0.121
		c8.589-0.351,15.023-8.574,14.574-17.297c-0.488-9.465-7.086-16.094-16.149-16.191c-3.312-0.039-6.621,0-9.937,0
		c-8.039,0-16.07,0-24.254,0v33.609H12.75z M12.855,17.876v32.535c10.981,0,21.688,0.246,32.383-0.086
		c7.734-0.23,13.922-7.671,14.078-16.035c0.16-8.285-5.332-15.996-12.586-16.297C35.527,17.536,24.293,17.876,12.855,17.876
		L12.855,17.876z M12.855,17.876"/>
	<path d="M403.012,105.294c-5.934,0.914-10.665,0.676-15.114-5.094c-17.301-22.437-35.301-44.347-53.047-66.449
		c-0.562-0.695-1.168-1.347-2.316-2.668v74.227H319.82V7.083c5.492-0.895,9.828-0.683,13.953,4.688
		c17.27,22.461,35.168,44.453,52.836,66.605c1.059,1.328,2.137,2.633,3.856,4.742V6.931h12.539v98.355L403.012,105.294z
		 M403.012,105.294"/>
	<path d="M413.691,173.583c2.68,0,4.949-0.25,7.141,0.09c1.5,0.231,3.336,0.899,4.23,2.008
		c18.504,23.019,36.891,46.125,55.313,69.211c1.125,1.41,2.281,2.797,4.012,4.914v-75.969h12.617v98.274
		c-5.664,0.742-10.367,1.043-14.785-4.68c-17.145-22.223-34.957-43.938-52.528-65.828c-0.863-1.082-1.808-2.102-3.34-3.879V272.2
		h-12.66v-98.625V173.583z M413.691,173.583"/>
	<path d="M75.726,272.47c-4.875,0-9.074,0.187-13.238-0.129c-1.078-0.082-2.293-1.566-3.012-2.684
		c-6.324-9.781-12.64-19.558-18.73-29.484c-1.527-2.496-3.215-3.305-6.051-3.23c-7.156,0.195-14.312,0.066-21.902,0.066v35.176
		H0.074v-98.602h4.109c12.332,0,24.692,0.5,36.993-0.121c18.3-0.922,34.386,17.664,30.687,37.738
		c-2.098,11.395-8.457,19.426-19.973,23.551c4.051,6.414,7.907,12.528,11.77,18.637c3.871,6.129,7.746,12.258,12.066,19.09V272.47z
		 M12.726,225.611c9.106,0,17.836,0,26.575,0c11.511,0,17.91-5.379,19.949-16.668c2.031-11.196-6.18-25.34-20.004-24.18
		c-4.992,0.422-10.063,0.07-15.098,0.07c-3.785,0-7.574,0-11.429,0v40.778H12.726z M12.726,225.611"/>
	<path d="M396.32,223.443c-0.476,16.355-6.582,30.121-19.574,40.32c-18.856,14.789-44.902,11.953-61.117-6.34
		c-17.864-20.16-16.582-53.016,2.797-71.715c22.668-21.859,57.757-15.238,72.187,13.645c3.781,7.566,5.805,15.578,5.707,24.097
		V223.443z M348.988,184.54c-7.875-0.3-15.035,2.953-21.09,8.84c-15.082,14.672-16.215,40.774-2.496,56.801
		c12.711,14.848,33.766,15.394,47.211,1.234c13.856-14.601,14.508-39.847,1.313-55.324
		C367.613,188.681,359.707,184.376,348.988,184.54L348.988,184.54z M348.988,184.54"/>
	<path d="M222.578,223.068h31.41v49.058h-10.539v-12.273c-1.102,0.863-1.711,1.261-2.219,1.75
		c-17.851,17.105-43.664,14.371-60.152-3.457c-21.867-23.664-16.82-63.52,10.312-79.403c20.696-12.113,47.68-5.812,58.938,13.762
		c0.32,0.563,0.586,1.156,1.012,1.996c-3.188,2.219-6.278,4.379-9.555,6.66c-0.66-0.937-1.109-1.547-1.531-2.183
		c-11.797-18.18-35.864-19.957-50.266-3.707c-13.828,15.601-12.777,42.742,2.215,57.203c11.918,11.5,29.055,11.91,42.875,1.988
		c7.93-5.691,9.879-12.66,7.832-21.879h-20.332v-9.523V223.068z M222.578,223.068"/>
	<path d="M427.117,6.849h65.387v11.094h-52.758v31.793h45.93v10.625h-45.891v33.789h54.008v11.273h-66.676V6.849z M427.117,6.849"/>
	<path d="M158.664,260.904v11.234H91.543v-98.293h65.633v10.859h-52.754v31.86h45.718V227.2h-45.847v33.696h54.371V260.904z
		 M158.664,260.904"/>
	<path d="M575.191,17.282c-2.078,3.594-3.926,6.786-5.844,10.102c-10.074-8.285-21.449-11.684-34.14-9.418
		c-3.621,0.645-7.567,2.113-10.336,4.438c-7.875,6.609-6.098,18.812,3.316,22.816c5.551,2.363,11.617,3.496,17.43,5.273
		c6.691,2.047,13.559,3.688,19.965,6.426c9.414,4.02,14.113,11.559,14.004,21.953c-0.113,10.461-4.352,18.719-13.938,23.094
		c-15.742,7.168-31.77,5.824-47.453-0.461c-5.203-2.082-9.941-5.344-15.312-8.293c2.242-4.043,4.132-7.449,6.254-11.281
		c6.742,6.055,14.363,9.758,22.832,11.73c7.867,1.832,15.734,2.192,23.546-0.218c5.95-1.829,9.887-5.489,10.399-12.051
		c0.508-6.539-2.574-11.203-8.363-13.461c-7.118-2.777-14.559-4.719-21.864-7.016c-4.539-1.422-9.226-2.496-13.605-4.312
		c-16.402-6.785-20.52-26.789-8.422-39.949c5.992-6.52,13.695-9.274,22.191-10.27c14.461-1.695,27.555,1.582,39.333,10.914
		L575.191,17.282z M575.191,17.282"/>
	<path d="M190.558,92.724c2.145-3.785,4.02-7.102,6.122-10.809c6.007,5.438,12.824,8.981,20.386,11.117
		c7.918,2.235,15.922,2.797,23.977,1.012c9.515-2.113,14.258-9.226,11.937-17.664c-1.136-4.16-4.019-7.012-7.804-8.441
		c-6.414-2.434-13.02-4.352-19.582-6.399c-4.676-1.457-9.481-2.535-14.086-4.179c-9.668-3.442-16.614-9.293-17.02-20.504
		c-0.41-11.282,3.645-20.461,13.766-25.809c13.324-7.035,27.328-6.75,41.172-1.461c4.621,1.762,8.804,4.641,13.539,7.192
		c-2.282,3.945-4.172,7.214-6.145,10.628c-10.258-8.492-21.75-11.511-34.609-9.546c-8.981,1.371-14.446,6.945-14.657,15.043
		c-0.156,6.07,2.364,10.343,8.903,12.625c7.476,2.601,15.277,4.257,22.898,6.484c4.305,1.262,8.692,2.469,12.75,4.336
		c11.145,5.137,15.758,12.797,14.938,24.57c-0.793,11.395-6.906,19.321-17.61,22.637c-21.187,6.562-40.73,2.543-58.882-10.84
		L190.558,92.724z M190.558,92.724"/>
	<path d="M659.863,17.493c-1.91,3.305-3.75,6.485-5.758,9.973c-6.969-6.133-14.934-9.488-23.844-9.93
		c-4.688-0.23-9.563,0.196-14.129,1.262c-7.09,1.656-10.996,7.027-11.281,14.063c-0.246,6.207,2.453,10.468,9.609,12.953
		c7.223,2.504,14.781,4.047,22.141,6.199c4.43,1.301,8.879,2.687,13.102,4.516c10.051,4.359,14.977,12.031,14.652,23.144
		c-0.313,10.785-5.422,18.277-14.961,22.891c-17.199,8.316-48.531,3.063-61.246-10.321c1.832-3.253,3.699-6.57,5.738-10.207
		c0.945,0.715,1.727,1.305,2.504,1.899c12.488,9.48,26.453,13.066,41.891,10.086c8.309-1.606,12.758-7.047,12.492-14.481
		c-0.195-5.316-2.902-9.3-7.582-11.207c-6.586-2.683-13.469-4.625-20.258-6.793c-4.91-1.566-9.953-2.754-14.797-4.492
		c-8.941-3.203-15.473-8.672-16.254-18.93c-0.875-11.535,3-20.875,13.223-26.867c15.633-9.164,40.816-6.32,54.738,6.235
		L659.863,17.493z M659.863,17.493"/>
	<path d="M163.777,6.896h12.426c0.113,0.605,0.277,1.101,0.277,1.59c-0.019,17.339,0.16,34.695-0.23,52.027
		c-0.129,5.742-1.164,11.633-2.789,17.16c-6.324,21.5-23.192,31.348-47.321,27.965c-18.5-2.594-30.187-15.66-33.097-35.938
		c-0.637-4.441-0.938-8.957-0.973-13.441c-0.121-14.961-0.047-29.926-0.047-44.887c0-1.418,0-2.836,0-4.441h12.735
		c0,1.484,0,2.887,0,4.293c0,15.359-0.028,30.719,0.015,46.07c0.024,8.012,1.043,15.848,4.809,23.086
		c4.836,9.293,12.594,13.981,23.012,14.399c11.105,0.445,19.972-3.5,25.664-13.356c4.73-8.207,5.445-17.32,5.496-26.5
		c0.097-15.875,0.031-31.746,0.031-48.035L163.777,6.896z M163.777,6.896"/>
	<rect x="273.504" y="173.79" width="12.141" height="98.535"/>
	<rect x="283.582" y="6.962" width="12.137" height="98.461"/>
</g>
</svg>
