<svg width="42" height="31" viewBox="0 0 42 31" fill="none" xmlns="http://www.w3.org/2000/svg">
<path d="M37.3333 0H17.5V12.8333H42V4.66667C42 3.42899 41.5083 2.242 40.6332 1.36683C39.758 0.491665 38.571 0 37.3333 0ZM17.5 30.3333H37.3333C39.9105 30.3333 42 28.2438 42 25.0833V17.5H17.5V30.3333ZM0 17.5V25.0833C0 28.2438 2.0895 30.3333 4.66667 30.3333H12.8333V17.5H0ZM12.8333 0H4.66667C3.42899 0 2.242 0.491665 1.36684 1.36683C0.491665 2.242 0 3.42899 0 4.66667L0 12.8333H12.8333V0Z" fill="#C60C30"/>
<path d="M17.5 0H12.8333V12.8333H0V17.5H12.8333V30.3333H17.5V17.5H42V12.8333H17.5V0Z" fill="#EEEEEE"/>
</svg>
