<svg width="42" height="31" viewBox="0 0 42 31" fill="none" xmlns="http://www.w3.org/2000/svg">
<path d="M0 4.7355V9.33333H6.566L0 4.7355ZM5.44133 30.3333H15.1667V23.5235L5.44133 30.3333ZM26.8333 23.5247V30.3333H36.5575L26.8333 23.5247ZM0 21V25.5978L6.56833 21H0ZM36.5598 0H26.8333V6.80983L36.5598 0ZM42 25.599V21H35.4305L42 25.599ZM42 9.33333V4.7355L35.4328 9.33333H42ZM15.1667 0H5.44133L15.1667 6.80983V0Z" fill="#00247D"/>
<path d="M29.3299 21L40.6606 28.9345C41.213 28.3637 41.6105 27.6614 41.8156 26.894L33.3981 21H29.3299ZM15.1666 21H12.6688L1.33927 28.9333C1.94711 29.5517 2.72644 29.9938 3.60027 30.1992L15.1666 22.1002V21ZM26.8333 9.33332H29.3311L40.6606 1.39999C40.0419 0.773256 39.2584 0.334405 38.4008 0.134153L26.8333 8.23315V9.33332ZM12.6688 9.33332L1.33927 1.39999C0.786468 1.97064 0.388512 2.67299 0.183105 3.44049L8.60061 9.33332H12.6688Z" fill="#CF1B2B"/>
<path d="M42 18.6667H24.5V30.3333H26.8333V23.5247L36.5575 30.3333H37.3333C37.953 30.3328 38.5664 30.2088 39.1377 29.9686C39.709 29.7285 40.2267 29.3769 40.6607 28.9345L29.33 21H33.3982L41.8157 26.894C41.9242 26.5008 42 26.0937 42 25.6667V25.599L35.4305 21H42V18.6667ZM0 18.6667V21H6.56833L0 25.5978V25.6667C0 26.9395 0.512167 28.091 1.33933 28.9333L12.6688 21H15.1667V22.1002L3.60033 30.198C3.94333 30.2797 4.298 30.3333 4.66667 30.3333H5.44133L15.1667 23.5235V30.3333H17.5V18.6667H0ZM42 4.66667C42.0011 3.4439 41.5198 2.27007 40.6607 1.4L29.3312 9.33333H26.8333V8.23317L38.4008 0.134166C38.0514 0.0484379 37.6931 0.00341686 37.3333 0H36.5598L26.8333 6.80983V0H24.5V11.6667H42V9.33333H35.4328L42 4.7355V4.66667ZM15.1667 0V6.80983L5.44133 0H4.66667C4.04687 0.000708723 3.43343 0.124873 2.86215 0.365244C2.29087 0.605616 1.77319 0.957379 1.33933 1.4L12.6688 9.33333H8.60067L0.183167 3.4405C0.0678495 3.83926 0.00625052 4.25162 0 4.66667L0 4.7355L6.566 9.33333H0V11.6667H17.5V0H15.1667Z" fill="#EEEEEE"/>
<path d="M24.5 11.6667V0H17.5V11.6667H0V18.6667H17.5V30.3333H24.5V18.6667H42V11.6667H24.5Z" fill="#CF1B2B"/>
</svg>
