<svg width="25" height="25" viewBox="0 0 25 25" fill="none" xmlns="http://www.w3.org/2000/svg">
<path fill-rule="evenodd" clip-rule="evenodd" d="M13.125 21.8365C15.5536 21.615 17.8076 20.4798 19.4315 18.6603C21.0554 16.8409 21.9281 14.4729 21.8732 12.0348C21.8183 9.59665 20.84 7.27027 19.1359 5.52572C17.4319 3.78117 15.1291 2.74853 12.6929 2.63646C10.2568 2.5244 7.86892 3.34127 6.01188 4.92201C4.15483 6.50275 2.96706 8.72949 2.6886 11.1523C2.41013 13.575 3.06172 16.0132 4.51171 17.974C5.9617 19.9349 8.10196 21.2722 10.5 21.7158V15.3125H8.3125C7.9644 15.3125 7.63056 15.1742 7.38442 14.9281C7.13828 14.6819 7 14.3481 7 14C7 13.6519 7.13828 13.3181 7.38442 13.0719C7.63056 12.8258 7.9644 12.6875 8.3125 12.6875H10.5V10.92C10.5 9.373 10.9585 8.176 11.7635 7.364C12.5685 6.552 13.7253 6.125 15.127 6.125C15.6047 6.125 16.198 6.195 16.786 6.49775C17.0872 6.6614 17.3125 6.9364 17.4136 7.26396C17.5147 7.59152 17.4836 7.94563 17.327 8.25058C17.1704 8.55553 16.9007 8.78712 16.5756 8.89582C16.2505 9.00452 15.8958 8.9817 15.5872 8.83225C15.442 8.77059 15.2846 8.74248 15.127 8.75C14.2642 8.75 13.8372 9.002 13.6272 9.21375C13.4172 9.42375 13.125 9.89625 13.125 10.92V12.6875H15.3125C15.6606 12.6875 15.9944 12.8258 16.2406 13.0719C16.4867 13.3181 16.625 13.6519 16.625 14C16.625 14.3481 16.4867 14.6819 16.2406 14.9281C15.9944 15.1742 15.6606 15.3125 15.3125 15.3125H13.125V21.8365ZM12.25 24.5C15.4989 24.5 18.6147 23.2094 20.9121 20.9121C23.2094 18.6147 24.5 15.4989 24.5 12.25C24.5 9.0011 23.2094 5.88526 20.9121 3.58794C18.6147 1.29062 15.4989 0 12.25 0C9.0011 0 5.88526 1.29062 3.58794 3.58794C1.29062 5.88526 0 9.0011 0 12.25C0 15.4989 1.29062 18.6147 3.58794 20.9121C5.88526 23.2094 9.0011 24.5 12.25 24.5Z" fill="#12294B"/>
</svg>
