<svg width="42" height="31" viewBox="0 0 42 31" fill="none" xmlns="http://www.w3.org/2000/svg">
<path d="M0 25.6667C0 26.9043 0.491665 28.0913 1.36684 28.9665C2.242 29.8417 3.42899 30.3333 4.66667 30.3333H37.3333C38.571 30.3333 39.758 29.8417 40.6332 28.9665C41.5083 28.0913 42 26.9043 42 25.6667V21H0V25.6667Z" fill="#FFCD05"/>
<path d="M0 10.5H42V21H0V10.5Z" fill="#ED1F24"/>
<path d="M37.3333 0H4.66667C3.42899 0 2.242 0.491665 1.36684 1.36683C0.491665 2.242 0 3.42899 0 4.66667L0 10.5H42V4.66667C42 3.42899 41.5083 2.242 40.6332 1.36683C39.758 0.491665 38.571 0 37.3333 0Z" fill="#141414"/>
</svg>
