<svg width="98" height="98" viewBox="0 0 98 98" fill="none" xmlns="http://www.w3.org/2000/svg">
<path d="M81.8444 59.4346C79.6716 59.4346 77.7424 60.4577 76.4953 62.0458L69.1877 57.8269C70.4544 54.9819 71.1267 51.8737 71.1267 48.7169C71.1267 45.56 70.4446 42.4519 69.1877 39.6068L76.4953 35.3879C77.1296 36.2013 77.9411 36.8593 78.868 37.3118C79.7949 37.7643 80.8129 37.9994 81.8444 37.9992C85.6053 37.9992 88.6647 34.9398 88.6647 31.1788C88.6647 27.4179 85.6053 24.3584 81.8444 24.3584C79.2137 24.3584 76.7876 25.8979 75.6866 28.2655C75.2828 29.1103 75.0587 30.0297 75.0285 30.9655C74.9983 31.9014 75.1627 32.8333 75.5112 33.7023L68.3108 37.853C67.6678 36.6936 66.9273 35.5731 66.0698 34.5403C66.0499 34.5089 66.0271 34.4796 66.0016 34.4526C64.0047 32.0278 61.5193 30.0509 58.7073 28.6508C55.8954 27.2507 52.82 26.4588 49.6815 26.3266V22.3318C51.9225 22.0005 53.9004 20.5683 54.8747 18.4929C55.3132 17.6063 55.5373 16.6027 55.5373 15.5894C55.5373 11.8285 52.4778 8.76904 48.7169 8.76904C44.9559 8.76904 41.8965 11.8285 41.8965 15.5894C41.8965 16.6027 42.1206 17.6063 42.5493 18.4929C43.032 19.5118 43.7584 20.396 44.6642 21.0673C45.57 21.7386 46.6273 22.1763 47.7425 22.3416V26.3364C41.3996 26.6092 35.4951 29.5322 31.4224 34.4623C31.4029 34.4916 31.3737 34.5208 31.3542 34.55C30.5065 35.5828 29.7563 36.7033 29.1132 37.8628L21.9129 33.7121C22.2246 32.9326 22.4 32.0752 22.4 31.1886C22.4 30.1655 22.1759 29.1814 21.7472 28.2948C21.2029 27.1199 20.334 26.1251 19.243 25.4276C18.152 24.7302 16.8843 24.3592 15.5894 24.3584C11.8285 24.3584 8.76904 27.4179 8.76904 31.1788C8.76904 34.9398 11.8285 37.9992 15.5894 37.9992C17.7622 37.9992 19.6914 36.9761 20.9385 35.3879L28.2461 39.6068C26.9743 42.476 26.314 45.5785 26.3071 48.7169C26.3071 51.8737 26.9794 54.9819 28.2461 57.8269L20.9385 62.0458C20.3042 61.2324 19.4927 60.5744 18.5658 60.1219C17.6388 59.6695 16.6209 59.4344 15.5894 59.4346C11.8285 59.4346 8.76904 62.494 8.76904 66.255C8.76904 70.0159 11.8285 73.0753 15.5894 73.0753C18.2201 73.0753 20.6365 71.5359 21.757 69.1585C22.1857 68.2719 22.4098 67.2683 22.4098 66.255C22.4098 65.3586 22.2344 64.5109 21.9226 63.7314L29.123 59.5808C29.766 60.75 30.5163 61.8607 31.3639 62.9032C31.3834 62.9325 31.4029 62.9617 31.4321 62.9909C33.4302 65.4105 35.915 67.3827 38.725 68.7793C41.535 70.1759 44.6074 70.9657 47.7425 71.0974V75.0922C45.5016 75.4235 43.5237 76.8558 42.5591 78.9311C42.1206 79.8372 41.8965 80.8213 41.8965 81.8444C41.8965 85.6053 44.9559 88.6647 48.7169 88.6647C52.4778 88.6647 55.5373 85.6053 55.5373 81.8444C55.5373 80.8213 55.3132 79.8372 54.8844 78.9506C54.4044 77.9288 53.679 77.0418 52.7729 76.3686C51.8667 75.6953 50.808 75.2568 49.6912 75.0922V71.0974C56.0244 70.8246 61.9289 67.9113 66.0114 62.9909C66.0309 62.9617 66.0601 62.9325 66.0796 62.9032C66.9273 61.8607 67.6775 60.75 68.3206 59.5808L75.5209 63.7314C75.1994 64.5109 75.024 65.3586 75.024 66.255C75.024 67.2683 75.2481 68.2719 75.6768 69.1585C76.2304 70.3269 77.1033 71.3148 78.1948 72.0079C79.2862 72.701 80.5515 73.0711 81.8444 73.0753C85.6053 73.0753 88.6647 70.0159 88.6647 66.255C88.6647 62.494 85.6053 59.4346 81.8444 59.4346ZM77.4501 29.1035C77.8419 28.2686 78.4631 27.5624 79.2412 27.0672C80.0193 26.5721 80.9221 26.3085 81.8444 26.3071C84.5335 26.3071 86.7161 28.4896 86.7161 31.1788C86.7161 33.868 84.5335 36.0505 81.8444 36.0505C79.1552 36.0505 76.9727 33.868 76.9727 31.1788C76.9727 30.4481 77.1286 29.7563 77.4501 29.1035ZM15.5894 36.0505C12.9002 36.0505 10.7177 33.868 10.7177 31.1788C10.7177 28.4896 12.9002 26.3071 15.5894 26.3071C17.4699 26.3071 19.1945 27.4081 19.9934 29.123C20.3052 29.7563 20.4611 30.4481 20.4611 31.1788C20.4611 33.868 18.2786 36.0505 15.5894 36.0505ZM20.0032 68.3206C19.6075 69.1574 18.983 69.865 18.2019 70.3616C17.4208 70.8582 16.515 71.1235 15.5894 71.1267C12.9002 71.1267 10.7177 68.9441 10.7177 66.255C10.7177 63.5658 12.9002 61.3833 15.5894 61.3833C18.2786 61.3833 20.4611 63.5658 20.4611 66.255C20.4611 66.976 20.3052 67.6872 20.0032 68.3206ZM65.2027 60.8182C62.9553 58.3747 60.193 56.4611 57.1157 55.2157C57.3593 53.0917 57.4859 50.8897 57.4859 48.7169C57.4859 46.5441 57.3593 44.3421 57.1157 42.2181C60.1556 40.9904 62.9227 39.0904 65.2027 36.6254C67.7796 40.1307 69.1721 44.3662 69.178 48.7169C69.178 53.0819 67.7652 57.33 65.2027 60.8182ZM63.4781 62.8838C63.332 63.0299 63.1955 63.1761 63.0396 63.3222C62.9227 63.4391 62.8058 63.5463 62.6791 63.6632C62.533 63.7996 62.3771 63.9458 62.2212 64.0822C62.0945 64.1894 61.9776 64.2965 61.851 64.394C61.6951 64.5304 61.5294 64.6571 61.3735 64.7837L60.9935 65.076C60.8279 65.2027 60.6623 65.3196 60.4966 65.4365C60.37 65.5242 60.2336 65.6217 60.0972 65.7093C59.9218 65.8263 59.7561 65.9334 59.5808 66.0406C59.4443 66.1283 59.3079 66.2062 59.1715 66.2939C58.9962 66.4011 58.8208 66.4986 58.6356 66.596C58.4992 66.6739 58.3531 66.7519 58.2167 66.8298C58.0316 66.9273 57.8562 67.015 57.6711 67.1026C57.5249 67.1708 57.3885 67.2391 57.2423 67.3073C57.0572 67.3949 56.8624 67.4729 56.6772 67.5508C56.5311 67.6093 56.3849 67.6775 56.2388 67.736C56.0439 67.8139 55.849 67.8821 55.6542 67.9503C55.508 67.999 55.3619 68.0575 55.206 68.1062C55.0111 68.1744 54.8065 68.2329 54.6116 68.2913C54.4655 68.34 54.3096 68.379 54.1634 68.4277C53.9588 68.4862 53.7542 68.5349 53.5496 68.5836C53.3937 68.6226 53.2476 68.6616 53.0917 68.6908L52.7896 68.7493C54.7383 66.2452 56.1024 61.9971 56.8331 57.2131C59.5223 58.3726 61.9581 60.1166 63.9555 62.3479C63.9068 62.4063 63.8581 62.4648 63.7996 62.5233C63.7119 62.6499 63.595 62.7668 63.4781 62.8838ZM43.8647 68.5934C43.6601 68.5447 43.4555 68.4959 43.2606 68.4375C43.1047 68.3985 42.9586 68.3498 42.8124 68.3011C42.6175 68.2426 42.4129 68.1842 42.2181 68.116C42.0719 68.0672 41.916 68.0088 41.7699 67.9601C41.575 67.8919 41.3801 67.8237 41.195 67.7457C41.0489 67.6872 40.9027 67.6288 40.7566 67.5606C40.5714 67.4826 40.3766 67.4047 40.1914 67.317C40.0453 67.2488 39.8991 67.1806 39.7627 67.1124C39.5776 67.0247 39.3925 66.937 39.2171 66.8396C39.0795 66.7611 38.9398 66.6864 38.7981 66.6155C38.6227 66.518 38.4376 66.4206 38.2622 66.3134C38.1258 66.2355 37.9894 66.1478 37.853 66.0601C37.6776 65.9529 37.512 65.8457 37.3366 65.7288C37.2002 65.6411 37.0736 65.5437 36.9371 65.456C36.7715 65.3391 36.6059 65.2222 36.4402 65.0955L36.0602 64.8032C35.8946 64.6765 35.7387 64.5499 35.5828 64.4135C35.4562 64.3063 35.3295 64.1991 35.2126 64.0919C35.0567 63.9555 34.9105 63.8191 34.7546 63.6827C34.6377 63.5658 34.511 63.4586 34.3941 63.3417C34.248 63.1955 34.1018 63.0494 33.9654 62.9032C33.8485 62.7863 33.7316 62.6597 33.6147 62.533C33.5659 62.4745 33.5172 62.4161 33.4685 62.3674C35.4659 60.1361 37.9017 58.3921 40.5909 57.2326C41.3119 62.0069 42.676 66.255 44.6247 68.759L44.3226 68.7006C44.1765 68.6713 44.0206 68.6324 43.8647 68.5934ZM28.2558 48.7169C28.2558 44.3616 29.6686 40.1135 32.2311 36.6254C34.511 39.0904 37.2782 40.9904 40.3181 42.2181C40.0745 44.3421 39.9478 46.5441 39.9478 48.7169C39.9478 50.8897 40.0745 53.0917 40.3181 55.2157C37.2392 56.4582 34.4764 58.3722 32.2311 60.8182C29.6522 57.3101 28.2596 53.0709 28.2558 48.7169ZM33.9654 34.5403L34.3746 34.1311C34.5013 34.0044 34.628 33.8875 34.7546 33.7705C34.9008 33.6341 35.0372 33.5075 35.1833 33.3808C35.31 33.2639 35.4464 33.1567 35.5828 33.0398C35.729 32.9131 35.8849 32.7962 36.031 32.6695C36.1674 32.5624 36.3038 32.4552 36.4402 32.3578C36.7319 32.1367 37.0308 31.9255 37.3366 31.7244C37.4925 31.6173 37.6582 31.5101 37.8238 31.4127C37.9699 31.325 38.1161 31.2275 38.2622 31.1398C38.4279 31.0424 38.5935 30.945 38.7689 30.8475C38.9151 30.7696 39.0612 30.6819 39.2171 30.604L39.7432 30.3409C39.8991 30.2629 40.0453 30.1947 40.2012 30.1265C40.3766 30.0486 40.5617 29.9706 40.7371 29.8927C40.893 29.8245 41.0489 29.7563 41.2047 29.6978L41.7601 29.4932C41.916 29.4347 42.0719 29.3763 42.2278 29.3276C42.4129 29.2691 42.6078 29.2106 42.8027 29.1522C42.9586 29.1035 43.1144 29.0548 43.2801 29.006C43.4749 28.9476 43.6698 28.9086 43.8744 28.8599C44.0303 28.8209 44.1862 28.7819 44.3519 28.743L44.6539 28.6845C42.7052 31.1886 41.3412 35.4367 40.6104 40.2207C37.8951 39.0448 35.4656 37.2966 33.488 35.0956C33.5367 35.0469 33.5854 34.9885 33.6341 34.93C33.7218 34.7936 33.8485 34.6669 33.9654 34.5403ZM53.5886 28.8501L54.1829 28.9963L54.6603 29.1424L55.2352 29.3178C55.3911 29.3665 55.547 29.425 55.7029 29.4835L56.2583 29.6881C56.4142 29.7465 56.5701 29.8147 56.7259 29.8829C56.9111 29.9609 57.0864 30.0388 57.2618 30.1168C57.4177 30.185 57.5639 30.2629 57.7198 30.3311L58.2459 30.5942C58.3921 30.6722 58.548 30.7598 58.6941 30.8378C58.8597 30.9352 59.0351 31.0229 59.2008 31.1301C59.3469 31.2178 59.4931 31.3055 59.6392 31.4029C59.8049 31.5101 59.9607 31.6075 60.1264 31.7147C60.2725 31.8121 60.4089 31.9096 60.5551 32.007C60.711 32.1142 60.8669 32.2311 61.0228 32.348C61.1592 32.4552 61.2956 32.5526 61.432 32.6598C61.5879 32.7767 61.734 32.9034 61.8802 33.0301C62.0166 33.1372 62.1433 33.2541 62.2797 33.3711C62.4258 33.4977 62.572 33.6341 62.7084 33.7608C62.835 33.8777 62.9617 34.0044 63.0884 34.1213L63.4976 34.5305C63.6243 34.6572 63.7412 34.7839 63.8678 34.9203C63.9166 34.969 63.9653 35.0274 64.014 35.0859C62.0363 37.2869 59.6069 39.035 56.8916 40.2109C56.1219 35.4172 54.7578 31.1788 52.8091 28.6748L53.1111 28.7332C53.2768 28.7625 53.4327 28.8112 53.5886 28.8501ZM54.9916 40.9124C52.9845 41.5555 50.8702 41.8965 48.7169 41.8965C46.5636 41.8965 44.4493 41.5555 42.4422 40.9124C43.5626 33.1957 46.2421 28.2558 48.7169 28.2558C51.1917 28.2558 53.8711 33.1957 54.9916 40.9124ZM55.5373 48.7169C55.5373 50.7825 55.4203 52.7312 55.2352 54.5629C53.1501 53.9296 50.9579 53.5886 48.7169 53.5886C46.4759 53.5886 44.2837 53.9296 42.1986 54.5629C42.0037 52.7312 41.8965 50.7825 41.8965 48.7169C41.8965 46.6513 42.0134 44.7026 42.1986 42.8709C44.2837 43.5042 46.4759 43.8452 48.7169 43.8452C50.9579 43.8452 53.1404 43.5042 55.2352 42.8709C55.4203 44.7026 55.5373 46.6513 55.5373 48.7169ZM42.4422 56.5213C46.5226 55.2101 50.9112 55.2101 54.9916 56.5213C53.8711 64.2381 51.1917 69.178 48.7169 69.178C46.2421 69.178 43.5626 64.2381 42.4422 56.5213ZM44.3031 17.655C43.9992 17.009 43.8428 16.3034 43.8452 15.5894C43.8452 12.9002 46.0277 10.7177 48.7169 10.7177C51.4061 10.7177 53.5886 12.9002 53.5886 15.5894C53.5886 16.3104 53.4327 17.0217 53.1306 17.655C52.3219 19.3601 50.5974 20.4611 48.7169 20.4611C46.8364 20.4611 45.1118 19.3601 44.3031 17.655ZM53.1209 79.7885C53.4327 80.4218 53.5886 81.1136 53.5886 81.8444C53.5886 84.5335 51.4061 86.7161 48.7169 86.7161C46.0277 86.7161 43.8452 84.5335 43.8452 81.8444C43.8452 81.1136 44.0011 80.4218 44.3226 79.769C45.1118 78.0737 46.8364 76.9727 48.7169 76.9727C50.5974 76.9727 52.3219 78.0737 53.1209 79.7885ZM81.8444 71.1267C79.9639 71.1267 78.2393 70.0257 77.4306 68.3206C77.1267 67.6745 76.9702 66.9689 76.9727 66.255C76.9727 63.5658 79.1552 61.3833 81.8444 61.3833C84.5335 61.3833 86.7161 63.5658 86.7161 66.255C86.7161 68.9441 84.5335 71.1267 81.8444 71.1267Z" fill="white"/>
</svg>
