<svg width="80" height="80" viewBox="0 0 80 80" fill="none" xmlns="http://www.w3.org/2000/svg">
<path fill-rule="evenodd" clip-rule="evenodd" d="M28.2727 56.2658C27.88 56.6585 27.2432 56.6585 26.8505 56.2658C26.4578 55.8731 26.4578 55.2362 26.8505 54.8435L37.1436 44.5504C37.4956 44.1984 38.0438 44.162 38.4365 44.4412L51.9808 52.2611L59.1758 45.0661L58.0345 43.9248C57.4997 43.3902 57.7086 42.4289 58.5352 42.2302L63.5472 40.8873C64.293 40.6877 64.9815 41.3729 64.7736 42.1293L63.4208 47.1779C63.2216 47.9221 62.2841 48.1754 61.7393 47.6297L60.598 46.4884L52.8606 54.2258C52.5406 54.5461 52.0421 54.608 51.6506 54.3829L38.0234 46.5152L28.2727 56.2658ZM15.5832 35.7624C18.3435 35.7624 20.5817 38.0005 20.5817 40.7609C20.5817 43.5213 18.3435 45.7595 15.5832 45.7595C12.8228 45.7595 10.5846 43.5213 10.5846 40.7609C10.5846 38.0004 12.8228 35.7624 15.5832 35.7624ZM17.6954 38.6487C15.8188 36.7721 12.5962 38.1076 12.5962 40.7609C12.5962 43.4142 15.8188 44.7497 17.6954 42.8731C18.8617 41.7066 18.8617 39.8151 17.6954 38.6487ZM15.5832 33.3391C11.1085 33.3391 7.01652 35.6279 4.64404 39.3416C4.08083 40.2231 4.08036 41.2977 4.64404 42.1801C9.74859 50.1705 21.4176 50.1704 26.5223 42.1801C27.0883 41.2941 27.0883 40.2276 26.5223 39.3416C24.1496 35.6279 20.0578 33.3391 15.5832 33.3391ZM20.8458 36.6918C15.7947 33.9222 9.43836 35.5572 6.33339 40.418C6.19413 40.6362 6.1946 40.8862 6.33339 41.1036C10.6426 47.8502 20.5232 47.8493 24.8329 41.1036C24.9694 40.8901 24.9694 40.6316 24.8329 40.418C23.8428 38.8683 22.47 37.5825 20.8458 36.6918ZM54.8463 3.48146C54.2908 3.48146 53.8405 3.0312 53.8405 2.47572C53.8405 1.92024 54.2908 1.46997 54.8463 1.46997H70.042C74.2845 1.46997 77.7517 4.93732 77.7517 9.17971V24.3756C77.7517 24.9311 77.3015 25.3814 76.746 25.3814C76.1905 25.3814 75.7402 24.9311 75.7402 24.3756V9.17971C75.7402 6.04766 73.174 3.48146 70.042 3.48146H54.8463ZM75.7404 42.7V57.8957C75.7404 61.0278 73.1742 63.594 70.0422 63.594H54.8464C54.2909 63.594 53.8407 64.0443 53.8407 64.5997C53.8407 65.1552 54.2909 65.6055 54.8464 65.6055H70.0422C74.2847 65.6055 77.7519 62.1381 77.7519 57.8957V42.7C77.7519 42.1445 77.3016 41.6942 76.7461 41.6942C76.1907 41.6942 75.7404 42.1445 75.7404 42.7ZM36.5219 63.5941C37.0773 63.5941 37.5276 64.0444 37.5276 64.5999C37.5276 65.1554 37.0773 65.6056 36.5219 65.6056H24.0126C23.4571 65.6056 23.0068 65.1554 23.0068 64.5999C23.0068 64.0444 23.4571 63.5941 24.0126 63.5941H36.5219ZM15.6277 24.3756C15.6277 24.9311 15.1775 25.3814 14.622 25.3814C14.0665 25.3814 13.6162 24.9311 13.6162 24.3756V9.17971C13.6162 4.93732 17.0836 1.46997 21.326 1.46997H36.5219C37.0773 1.46997 37.5276 1.92024 37.5276 2.47572C37.5276 3.0312 37.0773 3.48146 36.5219 3.48146H21.326C18.1941 3.48146 15.6277 6.04766 15.6277 9.17971V24.3756ZM15.5832 26.6475C7.78878 26.6475 1.46991 32.9665 1.46991 40.7608C1.46991 47.5499 6.28883 53.3037 12.8135 54.602V58.0803C11.2212 58.2248 9.97729 59.5708 9.97729 61.1868V74.6326C9.97729 76.3503 11.379 77.752 13.0966 77.752H18.0697C19.7873 77.752 21.189 76.3503 21.189 74.6326V61.1868C21.189 59.5708 19.9452 58.2248 18.3528 58.0803V54.602C24.8775 53.3038 29.6964 47.5497 29.6964 40.7608C29.6964 32.9665 23.3774 26.6475 15.5832 26.6475ZM16.3412 54.8539V58.0676H14.825V54.8539H16.3412ZM24.1404 32.2036C19.4144 27.4776 11.7517 27.4776 7.02581 32.2036C2.29988 36.9295 2.29988 44.5922 7.02581 49.3181C11.7517 54.044 19.4144 54.044 24.1404 49.3181C28.8663 44.5922 28.8663 36.9295 24.1404 32.2036ZM18.0697 60.0791C18.677 60.0791 19.1775 60.5797 19.1775 61.1868V74.6326C19.1775 75.2398 18.677 75.7403 18.0697 75.7403H13.0966C12.4895 75.7403 11.9889 75.2398 11.9889 74.6326V61.1868C11.9889 60.5795 12.4895 60.0791 13.0966 60.0791C14.7543 60.0791 16.4119 60.0791 18.0697 60.0791ZM47.1192 32.7513C46.5637 32.7513 46.1134 32.301 46.1134 31.7456C46.1134 31.1901 46.5637 30.7398 47.1192 30.7398H67.6545C68.21 30.7398 68.6603 31.1901 68.6603 31.7456C68.6603 32.301 68.21 32.7513 67.6545 32.7513H47.1192ZM23.7136 22.6389H67.6545C68.21 22.6389 68.6603 22.1887 68.6603 21.6332C68.6603 21.0777 68.21 20.6274 67.6545 20.6274H23.7136C23.1581 20.6274 22.7079 21.0777 22.7079 21.6332C22.7079 22.1887 23.1581 22.6389 23.7136 22.6389ZM23.7136 12.5268H67.6545C68.21 12.5268 68.6603 12.0766 68.6603 11.5211C68.6603 10.9656 68.21 10.5153 67.6545 10.5153H23.7136C23.1581 10.5153 22.7079 10.9656 22.7079 11.5211C22.7079 12.0764 23.1581 12.5268 23.7136 12.5268ZM62.3861 43.2781L60.6875 43.7333L61.9309 44.9767L62.3861 43.2781Z" fill="white"/>
</svg>
