<svg width="88" height="88" viewBox="0 0 88 88" fill="none" xmlns="http://www.w3.org/2000/svg">
<g clip-path="url(#clip0_287_5891)">
<path d="M86.2359 33.5687C86.8881 33.5687 87.4172 33.04 87.4172 32.3874V21.0962C87.4172 17.9315 84.8423 15.3569 81.6776 15.3569H5.73897C2.5742 15.3569 0 17.9315 0 21.0962V32.3876C0 33.0401 0.529113 33.5689 1.18133 33.5689C6.77262 33.5689 11.3209 38.1177 11.3209 43.7085C11.3209 49.2992 6.77244 53.848 1.18133 53.848C0.529113 53.848 0 54.3768 0 55.0293V66.321C0 69.4858 2.5742 72.0603 5.73897 72.0603H81.6776C84.8423 72.0603 87.4172 69.4858 87.4172 66.321V55.0293C87.4172 54.3768 86.8881 53.848 86.2359 53.848C80.6446 53.848 76.0964 49.2992 76.0964 43.7085C76.0964 38.1177 80.6446 33.5687 86.2359 33.5687ZM73.7337 43.7085C73.7337 50.2038 78.7127 55.5581 85.0546 56.1553V66.3212C85.0546 68.1831 83.5394 69.6978 81.6776 69.6978H29.7589V64.1868C29.7589 63.5342 29.2298 63.0055 28.5776 63.0055C27.9254 63.0055 27.3962 63.5342 27.3962 64.1868V69.6977H5.73897C3.87709 69.6977 2.36266 68.1829 2.36266 66.321V56.1553C8.7045 55.5581 13.6835 50.2038 13.6835 43.7085C13.6835 37.2131 8.7045 31.8588 2.36266 31.2616V21.0962C2.36266 19.2344 3.87692 17.7196 5.73897 17.7196H27.3964V23.2301C27.3964 23.8827 27.9255 24.4114 28.5777 24.4114C29.23 24.4114 29.7591 23.8827 29.7591 23.2301V17.7196H81.6777C83.5396 17.7196 85.0547 19.2344 85.0547 21.0962V31.2616C78.7127 31.8588 73.7337 37.2131 73.7337 43.7085ZM29.7589 40.1095V47.3074C29.7589 47.96 29.2298 48.4887 28.5776 48.4887C27.9254 48.4887 27.3962 47.96 27.3962 47.3074V40.1095C27.3962 39.4569 27.9254 38.9282 28.5776 38.9282C29.2298 38.9282 29.7589 39.4569 29.7589 40.1095ZM29.7589 52.148V59.3466C29.7589 59.9991 29.2298 60.5279 28.5776 60.5279C27.9254 60.5279 27.3962 59.9991 27.3962 59.3466V52.148C27.3962 51.4954 27.9254 50.9666 28.5776 50.9666C29.2298 50.9666 29.7589 51.4954 29.7589 52.148ZM29.7589 28.0707V35.2689C29.7589 35.9215 29.2298 36.4503 28.5776 36.4503C27.9254 36.4503 27.3962 35.9215 27.3962 35.2689V28.0707C27.3962 27.4181 27.9254 26.8893 28.5776 26.8893C29.2298 26.8893 29.7589 27.4181 29.7589 28.0707ZM64.7046 29.0896C64.7046 29.7422 64.1755 30.271 63.5233 30.271H42.6535C42.0012 30.271 41.4721 29.7422 41.4721 29.0896C41.4721 28.4371 42.0012 27.9083 42.6535 27.9083H63.5233C64.1755 27.9083 64.7046 28.4371 64.7046 29.0896ZM64.7046 38.8355C64.7046 39.488 64.1755 40.0168 63.5233 40.0168H42.6535C42.0012 40.0168 41.4721 39.488 41.4721 38.8355C41.4721 38.1829 42.0012 37.6541 42.6535 37.6541H63.5233C64.1755 37.6541 64.7046 38.1829 64.7046 38.8355ZM64.7046 48.5813C64.7046 49.2338 64.1755 49.7626 63.5233 49.7626H42.6535C42.0012 49.7626 41.4721 49.2338 41.4721 48.5813C41.4721 47.9287 42.0012 47.4 42.6535 47.4H63.5233C64.1755 47.4 64.7046 47.9287 64.7046 48.5813ZM64.7046 58.3271C64.7046 58.9797 64.1755 59.5084 63.5233 59.5084H42.6535C42.0012 59.5084 41.4721 58.9797 41.4721 58.3271C41.4721 57.6745 42.0012 57.1458 42.6535 57.1458H63.5233C64.1755 57.1459 64.7046 57.6745 64.7046 58.3271Z" fill="white"/>
</g>
<defs>
<clipPath id="clip0_287_5891">
<rect width="87.4172" height="87.4172" fill="white"/>
</clipPath>
</defs>
</svg>
