<svg width="28" height="28" viewBox="0 0 28 28" fill="none" xmlns="http://www.w3.org/2000/svg">
<path fill-rule="evenodd" clip-rule="evenodd" d="M16.114 21.6055C15.2653 23.3555 14.4462 23.625 14 23.625C13.5538 23.625 12.7347 23.3555 11.886 21.6055C11.235 20.2615 10.7538 18.354 10.5753 16.0283C12.8534 16.2415 15.1466 16.2415 17.4247 16.0283C17.2462 18.354 16.765 20.2615 16.1122 21.6055M17.4913 13.3822C16.3765 13.4995 15.2075 13.5625 14 13.5625C12.7925 13.5625 11.6235 13.4995 10.507 13.3822C10.5718 10.4142 11.1072 8.001 11.886 6.3945C12.7347 4.6445 13.5538 4.375 14 4.375C14.4462 4.375 15.2653 4.6445 16.114 6.3945C16.8928 8.001 17.4265 10.4142 17.493 13.3822M20.0795 15.6678C19.9307 18.3207 19.4232 20.6517 18.6165 22.4473C20.0122 21.6845 21.1972 20.5877 22.0654 19.255C22.9336 17.9223 23.458 16.3952 23.5917 14.8103C22.505 15.1585 21.3255 15.4473 20.0795 15.6678ZM23.436 12.0925C22.435 12.4495 21.3185 12.7557 20.1093 12.992C20.0112 10.0677 19.4897 7.497 18.6165 5.55275C19.848 6.22557 20.9175 7.15955 21.75 8.28924C22.5826 9.41893 23.158 10.717 23.436 12.0925ZM7.89075 12.992C7.98875 10.0677 8.51025 7.497 9.3835 5.55275C8.15199 6.22557 7.08251 7.15955 6.24998 8.28924C5.41745 9.41893 4.84202 10.717 4.564 12.0925C5.565 12.4495 6.6815 12.7557 7.89075 12.992ZM4.41 14.8103C4.5437 16.3952 5.06811 17.9223 5.93632 19.255C6.80454 20.5877 7.9895 21.6845 9.38525 22.4473C8.58025 20.6517 8.07275 18.3207 7.92225 15.6678C6.73373 15.4603 5.56038 15.1739 4.41 14.8103ZM26.25 14C26.25 10.7511 24.9594 7.63526 22.6621 5.33794C20.3647 3.04062 17.2489 1.75 14 1.75C10.7511 1.75 7.63526 3.04062 5.33794 5.33794C3.04062 7.63526 1.75 10.7511 1.75 14C1.75 17.2489 3.04062 20.3647 5.33794 22.6621C7.63526 24.9594 10.7511 26.25 14 26.25C17.2489 26.25 20.3647 24.9594 22.6621 22.6621C24.9594 20.3647 26.25 17.2489 26.25 14Z" fill="#12294B"/>
</svg>
